<svg width="728" height="415" viewBox="0 0 728 415" fill="none" xmlns="http://www.w3.org/2000/svg">
<g filter="url(#filter0_d)">
<path d="M361.196 289.593C347.922 289.593 337.679 288.786 327.988 286.979C324.622 286.333 321.17 286.01 317.831 285.698C313.814 285.322 309.661 284.933 305.493 283.991C292.986 281.012 280.32 280.254 266.911 279.45C254.301 278.695 241.261 277.913 228.062 275.155C217.024 272.826 204.258 269.384 193.219 261.498C180.739 252.519 175.35 233.765 174.525 220.43C174.289 216.637 174.382 212.907 174.471 209.299C174.53 206.954 174.59 204.528 174.554 202.176C174.459 196.136 173.683 189.971 172.932 184.01C172.585 181.255 172.226 178.406 171.935 175.583C170.646 163.331 169.718 152.26 171.419 140.905C174.051 123.406 183.01 110.5 198.046 102.544C206.16 98.311 212.719 95.785 219.218 94.397C218.683 84.64 222.536 76.674 230.674 70.702C240.772 63.248 252.961 58.393 269.027 55.429C270.664 55.114 272.328 54.815 273.992 54.517C279.455 53.537 285.103 52.523 290.438 50.737C290.551 50.693 290.642 50.654 290.715 50.621C290.701 48.769 291.293 47.05 292.428 45.646C295.442 41.971 298.796 38.192 303.864 35.728C317.172 29.387 330.967 27.069 342.708 25.637C353.443 24.283 364.458 23.595 375.432 23.595C379.219 23.595 383.078 23.677 386.906 23.837C406.016 24.641 422.247 27.958 436.525 33.976C443.059 36.757 448.11 39.5 452.429 42.614C459.825 47.92 464.933 53.194 468.491 59.202C468.774 59.638 468.945 59.772 470.315 60.034C483.752 62.196 495.466 67.27 505.047 75.102C509.592 78.695 513.294 82.864 516.326 87.817C516.626 88.272 517.08 88.616 517.952 89.007C517.999 89.028 518.046 89.05 518.091 89.073C520.471 90.291 523.044 91.302 525.532 92.28C527.917 93.217 530.383 94.186 532.754 95.358C540.364 99.18 544.415 106.063 547.616 112.215C553.802 123.644 555.525 136.817 556.334 147.012C556.629 150.752 556.447 154.456 556.271 158.038C556.115 161.218 555.967 164.222 556.129 167.226C556.13 167.237 556.138 167.322 556.142 167.558C556.775 178.169 555.67 191.309 553.029 204.569C552.505 207.139 552.035 214.051 551.621 220.15C551.216 226.109 550.833 231.738 550.371 234.358C548.735 243.615 544.269 252.547 538.425 258.253C525.675 270.597 511.425 272.297 496.339 274.096C490.178 274.831 483.807 275.591 477.235 277.1C469.104 278.962 461.102 279.983 453.362 280.969C445.548 281.965 437.466 282.994 429.448 284.892C415.278 288.295 400.707 288.681 386.615 289.055C383.911 289.126 381.207 289.199 378.507 289.29C372.371 289.454 366.85 289.593 361.196 289.593Z" fill="#EE787F"/>
<path d="M375.434 26.592C379.207 26.592 382.99 26.673 386.781 26.832C403.443 27.533 419.785 30.172 435.361 36.738C440.662 38.994 445.881 41.588 450.675 45.045C456.613 49.304 462.113 54.293 465.939 60.776C466.957 62.364 468.209 62.683 469.753 62.978C481.976 64.945 493.319 69.387 503.149 77.422C507.389 80.775 510.883 84.669 513.768 89.38C514.545 90.567 515.559 91.218 516.725 91.741C521.536 94.202 526.704 95.71 531.424 98.044C537.858 101.274 541.602 107.151 544.955 113.597C550.475 123.797 552.434 135.773 553.344 147.246C553.873 153.967 552.774 160.696 553.133 167.383C553.137 167.433 553.141 167.492 553.143 167.664C553.846 179.289 552.377 192.478 550.086 203.978C549.024 209.192 548.336 228.617 547.416 233.831C545.988 241.909 541.986 250.577 536.328 256.101C519.297 272.589 499.406 268.925 476.562 274.17C460.337 277.887 444.849 278.159 428.755 281.966C412.226 285.937 395.257 285.71 378.401 286.286C372.644 286.443 366.911 286.591 361.193 286.591C350.268 286.591 339.398 286.054 328.534 284.028C321.009 282.586 313.575 282.742 306.151 281.063C281.352 275.157 255.346 277.791 228.672 272.216C216.769 269.704 205.147 266.331 194.959 259.054C184.039 251.199 178.375 234.132 177.516 220.242C177.135 214.111 177.643 208.123 177.55 202.127C177.408 193.109 175.838 184.216 174.916 175.273C173.732 164.021 172.672 152.763 174.383 141.347C176.864 124.851 185.256 112.701 199.446 105.193C206.138 101.701 213.029 98.704 220.435 97.205C221.804 96.901 222.378 96.48 222.247 94.796C221.56 85.477 225.271 78.383 232.446 73.117C243.617 64.871 256.355 60.814 269.568 58.375C276.879 56.968 284.271 55.969 291.45 53.556C293.109 52.925 293.736 52.238 293.713 50.63C293.696 49.474 294.046 48.409 294.758 47.528C297.738 43.894 300.76 40.567 305.173 38.421C317.247 32.668 330.05 30.198 343.069 28.61C353.837 27.254 364.604 26.592 375.434 26.592ZM375.434 20.592C364.333 20.592 353.193 21.287 342.321 22.659C330.363 24.117 316.271 26.49 302.595 33.006C296.939 35.756 293.193 39.98 290.122 43.725C289.001 45.111 288.262 46.69 287.926 48.387C283.286 49.799 278.5 50.657 273.463 51.561C271.786 51.862 270.11 52.163 268.438 52.484C251.953 55.526 239.371 60.552 228.887 68.291C220.724 74.281 216.37 82.441 216.179 92.026C210.185 93.551 204.034 96.035 196.675 99.875C180.72 108.317 171.235 121.965 168.454 140.456C166.699 152.164 167.642 163.435 168.953 175.902C169.246 178.747 169.607 181.612 169.956 184.383C170.73 190.535 171.462 196.346 171.555 202.222C171.59 204.513 171.534 206.801 171.473 209.223C171.382 212.894 171.287 216.691 171.532 220.615C172.397 234.603 178.136 254.341 191.46 263.926C202.965 272.144 216.103 275.696 227.438 278.088C240.863 280.894 254.014 281.682 266.732 282.443C280.007 283.238 292.546 283.99 304.765 286.9C304.787 286.905 304.809 286.911 304.832 286.916C309.188 287.9 313.44 288.299 317.552 288.684C320.97 289.004 324.199 289.306 327.409 289.921C337.32 291.77 347.731 292.592 361.198 292.592C366.892 292.592 372.434 292.452 378.57 292.285C381.304 292.191 384 292.12 386.696 292.049C400.943 291.671 415.675 291.28 430.161 287.801C438.006 285.946 445.65 284.971 453.744 283.94C461.556 282.945 469.633 281.916 477.906 280.02C484.325 278.546 490.614 277.796 496.697 277.071C512.3 275.21 527.037 273.452 540.506 260.413C546.801 254.268 551.587 244.728 553.328 234.877C553.818 232.1 554.188 226.654 554.617 220.351C555.005 214.643 555.488 207.54 555.969 205.179C558.659 191.675 559.784 178.289 559.144 167.44C559.139 167.21 559.132 167.085 559.124 166.991C558.978 164.164 559.12 161.258 559.271 158.183C559.452 154.507 559.638 150.705 559.329 146.776C558.498 136.296 556.716 122.742 550.26 110.787C546.595 103.749 542.1 96.69 534.12 92.683C531.602 91.438 529.076 90.445 526.634 89.485C524.101 88.49 521.709 87.55 519.462 86.4C519.37 86.353 519.277 86.309 519.184 86.267C518.952 86.163 518.829 86.093 518.772 86.058C515.582 80.894 511.699 76.537 506.909 72.744C496.943 64.61 484.795 59.337 470.803 57.07C470.767 57.063 470.734 57.056 470.702 57.05C466.947 50.93 461.676 45.55 454.176 40.17C449.684 36.931 444.449 34.084 437.714 31.217C423.081 25.049 406.51 21.656 387.036 20.837C383.165 20.675 379.262 20.592 375.434 20.592Z" fill="#EE787F"/>
<path d="M547.878 159.499C547.622 152.375 547.733 145.323 546.575 138.215C546.167 135.441 545.669 132.803 544.997 130.178C543.071 122 539.772 114.504 533.923 108.523C531.249 105.778 527.538 103.96 523.741 102.496C522.608 101.857 521.315 101.378 520.098 100.96C520.836 105.458 520.502 109.584 519.418 113.698C516.324 125.651 509.037 134.48 499.773 141.589C487.496 151.016 473.605 156.622 458.955 160.705C422.738 170.806 386.053 177.533 348.444 178.337C346.614 178.491 344.85 178.495 343.046 178.495C309.265 178.201 276.67 171.155 244.89 159.256C237.034 156.304 229.022 152.862 221.8 148.702C219.356 147.258 216.095 145.47 214.646 143.063C214.195 142.295 214.132 141.384 214.448 140.891C214.72 140.852 215.049 140.843 215.431 140.897C216.147 140.995 216.827 141.293 217.47 141.632C218.863 142.431 220.179 143.47 221.599 144.206C222.267 144.605 222.974 144.981 223.7 145.295C226.52 146.401 229.5 147.001 232.483 147.552C234.156 147.719 235.808 147.97 237.491 148.062C239.26 148.283 241.018 148.304 242.823 148.118C246.772 147.965 252.277 146.602 256.003 143.895C257.984 142.679 259.59 140.979 260.414 139.002C260.507 138.73 260.651 138.625 260.779 138.398C261.391 138.267 262.016 138.272 262.683 138.408C262.896 138.658 263.124 138.793 263.298 139.088C264.687 141.231 265.213 143.617 265.554 146.118C266.02 149.475 267.9 151.467 270.154 152.6C272.51 154.317 275.517 154.707 277.908 154.301C278.945 154.055 279.839 153.608 280.607 152.92C281.688 152.379 282.586 151.391 283.292 150.257C284.135 148.817 284.886 146.273 286.268 145.039C286.816 144.771 287.438 144.742 288.182 145.042C293.129 146.805 298.184 142.735 302.971 145.444C306.824 147.674 308.153 152.934 311.325 155.911C317.318 161.494 321.88 157.698 327.206 153.903C335.45 147.993 343.968 149.61 353.435 150.979C358.527 151.704 362.546 150.948 366.892 154.058C371.019 157.04 373.951 161.81 379.415 157.422C383.272 154.318 382.442 148.84 385.704 145.412C395.274 134.974 406.954 162.968 415.02 146.927C415.922 145.06 417.258 143.545 418.78 142.305C419.18 141.951 419.581 141.637 419.989 141.318C423.542 139.311 426.901 139.022 430.21 140.544C433.618 142.119 435.507 146.074 439.521 146.883C443.357 147.686 446.652 141.719 449.972 139.924C457.314 136.055 465.589 141.402 468.917 132.372C473.282 133.057 476.921 133.372 478.942 129.015C479.819 127.208 478.813 123.875 480.04 122.538C482.206 120.136 485.485 123.01 487.374 120.316C489.216 117.72 486.854 113.655 488.212 110.645C493.388 112.189 496.747 118.286 502.614 116.372C511.296 113.445 506.733 105.463 507.317 99.399C507.991 91.45 508.215 88.429 505.186 84.7C504.145 83.143 502.721 81.99 501.362 80.814C493.251 73.707 481.089 71.041 470.774 67.128C473.803 72.194 475.87 76.848 475.504 82.331C475.816 84.271 475.861 86.164 475.861 88.012C475.861 86.166 475.816 84.273 475.504 82.331C475.432 86.976 473.365 91.014 470.389 94.274C465.789 99.175 460.473 103.351 454.762 106.69C449.117 109.964 443.174 112.371 436.944 114.001C408.442 121.151 377.132 132.605 347.365 127.974C336.434 126.369 323.755 125.713 312.532 125.757C294.909 125.95 280.654 123.672 263.132 121.242C257.118 119.604 250.898 118.515 245.093 115.992C238.207 113.051 231.751 109.497 227.743 102.542C226.605 100.643 225.831 100.285 224.237 100.893C223.495 100.373 222.653 100.614 221.325 101.128C214.016 104.371 206.554 107.105 199.845 111.738C193.501 115.975 184.093 123.865 184.822 132.369C184.924 133.519 186.131 139.099 188.045 139.063C188.18 139.177 188.328 139.389 188.489 139.458C190.383 143.438 188.71 148.349 189.473 152.474C190.464 157.807 193.493 161.906 197.606 164.099C200.445 165.931 203.901 166.744 207.624 166.37C212.578 165.919 217.482 165.106 222.48 165.989C223.831 166.285 225.039 166.684 226.152 167.294C228.226 168.594 229.705 170.724 230.587 173.699C231.92 178.263 232.496 183.056 233.473 187.797C234.221 191.38 235.067 195.077 237.299 198.257C238.172 199.438 239.094 200.205 240.069 200.578C241.804 201.977 243.749 201.761 245.815 200.181C246.286 199.872 246.789 199.523 247.305 199.091C250.094 196.525 251.742 193.122 254.155 190.232C255.884 188.248 257.928 186.42 260.118 184.845C262.164 183.398 264.322 182.05 266.497 180.945C269.377 179.618 272.408 179.67 275.191 181.07C276.501 181.866 277.729 182.965 278.806 184.253C279.623 185.325 280.354 186.454 281.169 187.53C282.615 189.367 284.307 190.907 286.277 191.927C288.129 193.089 290.213 193.786 292.653 193.492C297.469 193.029 301.424 189.423 306.482 189.842C308.044 190.056 309.354 190.405 310.441 190.866C314.17 193.389 314.72 198.262 315.761 202.911C316.728 207.662 315.259 213.732 315.615 218.535C315.943 222.654 316.513 226.732 318.371 230.45C319.6 232.977 321.133 234.552 322.806 235.284C325.297 237.082 328.286 236.709 331.576 234.14C331.972 233.832 332.368 233.551 332.836 233.297C337.084 229.756 339.878 225.608 340.295 219.654C340.81 212.941 343.431 207.705 348.071 204.073C349.43 203.182 350.925 202.364 352.667 201.66C361.112 198.27 370.153 192.399 379.543 195.485C380.572 195.826 381.57 196.215 382.404 196.754C389 200.483 393.058 207.204 393.549 214.766C393.858 218.22 394.553 221.778 396.26 224.822C397.36 226.701 398.733 227.894 400.17 228.554C402.44 230.124 405.029 230.033 407.598 228.105C408.368 227.545 409.131 226.99 409.887 226.062C411.803 224.058 413.162 221.555 414.075 218.905C414.954 216.949 415.913 215.409 417.309 214.298C418.512 213.542 420.049 213.003 421.87 212.963C423.903 212.923 426.081 212.513 427.622 211.327C428.108 211.034 428.54 210.701 428.983 210.32C430.713 208.708 431.157 206.15 431.844 203.933C433.242 199.437 434.418 193.557 438.51 190.523C439.535 190.038 440.715 189.707 441.813 189.769C442.637 189.821 443.35 190.088 444.034 190.274C446.628 192.065 447.841 195.443 448.739 198.517C449.313 200.872 450.057 203.127 451.085 205.189C451.88 207.026 452.905 209.075 454.827 209.954C455.005 210.004 455.157 210.045 455.253 210.193C455.528 210.301 455.679 210.535 455.944 210.626C457.731 211.463 459.303 210.961 460.665 209.864C461.364 209.489 461.89 208.891 462.515 208.357C464.587 205.974 464.523 202.439 465.435 199.537C466.322 196.544 467.513 193.611 469.132 190.904C469.97 189.326 471.019 187.502 472.536 186.327C472.829 186.092 473.063 185.998 473.407 185.796C474.874 185.348 476.919 185.626 478.249 186.151C478.337 186.174 478.456 186.315 478.491 186.334C480.368 187.569 481.766 189.523 483.346 191.241C484.524 192.47 486.987 194.739 489.393 196.082C491.616 197.198 494.11 198.238 496.315 196.546C498.71 194.76 499.36 191.384 499.422 188.673C499.563 186.888 499.305 185.254 499.256 183.472C499.014 179.403 499.254 175.355 500.363 171.502C501.213 168.221 503.088 165.62 505.609 163.632C505.683 163.568 505.888 163.407 505.97 163.347C507.24 162.614 508.493 162.516 509.599 162.891C510.365 163.393 510.929 164.311 511.546 165.457C512.796 168.061 513.401 172.919 516.751 173.825C519.747 174.782 522.595 169.998 524.97 168.919C527.488 167.815 530.269 169.003 532.763 169.558C535.402 170.001 538.167 169.582 540.271 167.895C541.97 166.716 542.423 164.75 543.886 163.344C543.808 163.423 544.9 164.143 544.964 164.17C545.452 164.411 546.03 164.399 546.513 164.173C547.894 163.764 547.943 162.571 547.915 161.387C547.9 160.715 547.89 160.047 547.878 159.499Z" fill="white"/>
<path d="M234.504 88.051C236.35 89.101 239.151 88.989 240.97 88.644C242.578 88.327 246.706 85.484 247.852 87.888C248.709 89.578 246.87 92.123 246.799 94.012C246.721 96.251 247.581 98.345 249.375 99.79C249.923 100.196 250.463 100.402 251.008 100.687C253.488 102.465 256.12 102.22 258.729 100.603C259.646 99.96 260.553 99.429 261.451 98.76C262.424 98.08 264.391 95.909 265.663 96.299C267.038 96.831 268.769 100.212 269.722 101.291C272.966 104.881 275.277 103.527 279.622 104.083C282.07 104.451 283.681 105.775 285.937 106.542C289.461 107.723 293.096 107.785 296.813 108.105C304.733 108.776 312.485 107.791 320.451 108.795C327.468 109.602 334.343 113.215 341.45 113.008C347.538 112.937 350.089 107.796 355.622 106.669C359.756 105.851 364.254 108.109 368.557 108.018C373.561 107.784 378.397 106.612 383.514 106.593C389.498 106.565 390.53 105.254 394.754 101.892C399.004 98.716 400.928 100.889 405.145 99.611C409.403 98.452 409.885 93.227 414.207 92.105C421.441 90.195 433.602 110.991 439.236 98.483C440.285 96.235 440.359 93.925 440.556 91.442C440.679 87.196 442.046 85.827 445.966 85.687C447.427 85.639 448.929 85.463 450.386 85.395C455.456 85.029 456.335 83.537 457.46 79.041C458.446 75.353 457.669 73.166 457.149 70.459C458.542 63.597 458.063 58.456 452.616 51.546C448.177 45.872 441.05 42.16 434.434 39.24C420.385 33.099 405.524 30.827 390.526 29.758C385.395 29.401 380.266 29.309 375.284 29.364C359.944 29.386 344.733 31.214 329.692 33.992C324.043 35.08 318.261 36.441 313.068 38.828C311.179 39.798 306.033 41.826 306.463 44.601C306.644 45.75 307.836 46.589 309.372 47.355C311.115 48.457 313.622 49.267 315.56 50.265C315.85 50.429 316.169 50.704 316.369 50.997C316.52 50.809 316.896 51.475 317.317 52.243C317.093 52.871 316.887 53.377 316.699 54.009C315.578 57.332 316.117 58.502 319.296 59.562C320.678 59.987 322.084 60.254 323.608 60.007C328.61 59.336 330.251 61.104 330.255 66.361C330.26 69.384 332.67 72.38 336.248 72.002C338.586 71.834 340.519 70.831 341.839 68.847C343.255 66.637 344.937 66.298 347.116 67.358C348.437 67.897 349.668 68.834 351.205 68.948C355.204 69.348 357.713 66.604 360.468 64.164C360.45 64.157 360.388 64.154 360.37 64.15C361.855 63.729 363.44 63.389 365.011 63.337C368.224 63.237 371.337 63.973 374.365 62.941C375.275 62.643 375.787 62.269 376.383 61.852C379.516 59.142 378.354 56.088 382.297 55.271C385.485 54.709 390.274 57.423 392.742 59.267C397.668 63.017 399.379 59.621 397.328 54.733C396.474 52.431 394.387 50.961 392.058 49.992C382.878 46.546 372.704 46.284 362.697 46.298C360.646 46.293 358.629 46.3 356.592 46.303C355.098 46.3 353.635 46.293 352.164 46.27C352.137 46.27 352.115 46.239 352.051 46.214C365.013 39.845 378.441 38.408 392.326 43.307C393.496 43.808 394.615 44.326 395.744 44.941C404.668 49.845 403.162 60.489 401.627 68.676C400.166 75.958 395.803 81.977 389.039 85.278C386.859 86.272 384.652 87.246 382.361 88.041C373.248 91.326 363.481 90.888 354.008 90.214C344.809 89.555 335.493 89.755 326.41 88.071C316.498 86.412 307.083 82.277 300.994 74.124C299.175 71.636 297.806 68.937 296.935 66.008C296.323 64 296.304 59.652 293.899 58.62C291.869 57.815 289.162 58.525 287.088 58.924C283.819 59.616 280.572 60.423 277.241 60.871C273.669 61.449 270.091 61.791 266.531 62.383C256.727 64.214 247.685 69.755 239.917 75.734C238.014 77.224 236.12 78.761 234.51 80.589C233.212 82.058 232.072 84.965 233.114 86.797C233.441 87.306 233.946 87.717 234.504 88.051ZM388.966 54.78C388.989 54.804 389.011 54.828 389.034 54.853C388.228 54.32 387.914 53.928 388.966 54.78Z" fill="white"/>
<path d="M124.902 310.793C125.859 310.793 126.941 310.919 128.149 311.169C129.356 311.42 130.496 311.818 131.567 312.365C132.637 312.912 133.525 313.595 134.233 314.416C134.939 315.236 135.293 316.193 135.293 317.287C135.293 319.611 135.145 321.446 134.848 322.79C134.552 324.135 134.176 325.206 133.721 326.003C133.264 326.801 132.741 327.439 132.149 327.917C131.556 328.396 130.987 328.932 130.44 329.523C129.254 330.845 127.762 332.03 125.963 333.078C124.161 334.127 122.201 335.072 120.082 335.915C117.963 336.759 115.754 337.487 113.452 338.103C111.15 338.719 108.894 339.231 106.683 339.641C104.473 340.051 102.354 340.359 100.327 340.564C98.299 340.769 96.533 340.872 95.029 340.872C84.319 340.872 75.488 339.767 68.54 337.557C61.59 335.347 56.088 332.134 52.031 327.918C47.974 323.703 45.148 318.576 43.554 312.537C41.958 306.499 41.161 299.651 41.161 291.995C41.161 283.382 42.175 275.681 44.203 268.89C46.23 262.1 49.398 256.346 53.704 251.629C58.011 246.912 63.503 243.301 70.179 240.794C76.855 238.288 84.865 237.034 94.208 237.034C97.489 237.034 100.86 237.171 104.325 237.444C107.788 237.717 111.239 238.196 114.681 238.88C118.121 239.564 121.517 240.476 124.867 241.614C128.217 242.754 131.418 244.167 134.471 245.852C135.657 246.491 136.853 247.824 138.061 249.851C139.268 251.879 140.283 254.294 141.103 257.097C141.922 259.9 142.424 262.942 142.607 266.223C142.789 269.504 142.424 272.706 141.513 275.827C140.6 278.949 139.029 281.854 136.796 284.543C134.563 287.232 131.441 289.374 127.431 290.969L100.908 278.254C101.592 276.705 102.229 275.28 102.822 273.982C103.414 272.683 103.869 271.499 104.189 270.427C104.507 269.357 104.656 268.376 104.633 267.488C104.61 266.599 104.37 265.791 103.915 265.061C103.368 264.332 102.524 263.774 101.386 263.386C100.245 262.999 98.72 262.76 96.806 262.668C94.253 262.577 91.861 263.227 89.628 264.616C87.395 266.007 85.458 268.114 83.817 270.939C82.176 273.765 80.878 277.296 79.921 281.535C78.964 285.774 78.485 290.65 78.485 296.164C78.485 299.855 78.803 303.297 79.442 306.486C80.08 309.676 81.105 312.399 82.518 314.655C83.93 316.911 85.742 318.62 87.952 319.782C90.163 320.944 92.841 321.366 95.985 321.047C98.764 320.819 101.237 320.409 103.402 319.817C105.566 319.225 107.504 318.552 109.213 317.8C110.921 317.048 112.47 316.251 113.86 315.407C115.251 314.564 116.561 313.801 117.792 313.117C119.023 312.433 120.207 311.876 121.347 311.442C122.486 311.01 123.672 310.793 124.902 310.793Z" fill="white" stroke="#EE787F" stroke-width="42" stroke-miterlimit="10" stroke-linecap="round" stroke-linejoin="round"/>
<path d="M160.662 259.113C160.662 258.475 160.297 258.019 159.568 257.746C158.839 257.473 157.916 257.211 156.799 256.96C155.682 256.71 154.475 256.402 153.176 256.037C151.877 255.673 150.669 255.092 149.553 254.294C148.436 253.497 147.513 252.392 146.784 250.979C146.055 249.567 145.69 247.698 145.69 245.374C145.69 240.635 147.409 237.205 150.851 235.086C154.291 232.967 159.316 231.907 165.924 231.907C168.932 231.907 171.632 232.158 174.025 232.659C176.418 233.161 178.457 233.947 180.143 235.017C181.829 236.088 183.117 237.478 184.005 239.187C184.893 240.896 185.337 242.958 185.337 245.374C185.337 247.653 184.996 249.499 184.313 250.911C183.629 252.324 182.762 253.43 181.715 254.226C180.666 255.024 179.538 255.605 178.331 255.969C177.123 256.334 175.995 256.642 174.947 256.892C173.898 257.143 173.032 257.405 172.349 257.678C171.665 257.951 171.324 258.407 171.324 259.045V259.797C171.324 260.162 171.448 260.446 171.7 260.651C171.95 260.856 172.531 261.073 173.443 261.3C174.172 261.529 175.14 261.631 176.348 261.608C177.555 261.586 178.741 261.791 179.903 262.223C181.065 262.657 182.045 263.465 182.841 264.65C183.639 265.836 183.991 267.726 183.902 270.324L181.304 339.982L146.714 337.521L146.577 270.187C146.577 268.456 146.782 267.066 147.192 266.017C147.601 264.969 148.136 264.149 148.798 263.556C149.458 262.964 150.21 262.565 151.054 262.36C151.897 262.155 152.763 262.018 153.652 261.95C154.541 261.882 155.406 261.837 156.25 261.813C157.093 261.791 157.856 261.688 158.54 261.505C159.951 261.05 160.659 260.48 160.659 259.796V259.113H160.662Z" fill="white" stroke="#EE787F" stroke-width="42" stroke-miterlimit="10" stroke-linecap="round" stroke-linejoin="round"/>
<path d="M187.949 264.582L224.043 262.189C223.769 266.747 223.541 271.076 223.359 275.177C223.267 276.909 223.188 278.687 223.12 280.509C223.052 282.332 222.983 284.075 222.914 285.738C222.847 287.402 222.801 288.928 222.778 290.318C222.755 291.709 222.744 292.881 222.744 293.839C224.019 289.783 225.421 285.818 226.948 281.944C228.474 278.071 230.332 274.63 232.519 271.622C234.706 268.614 237.315 266.187 240.346 264.342C243.376 262.496 247.055 261.573 251.386 261.573C257.675 261.573 262.859 262.849 266.938 265.401C271.016 267.954 274.195 271.508 276.474 276.065C278.752 280.623 280.222 286.035 280.883 292.3C281.543 298.567 281.6 305.414 281.054 312.842C280.644 318.584 279.868 323.267 278.73 326.89C277.59 330.513 276.188 333.339 274.525 335.367C272.861 337.395 270.971 338.785 268.852 339.537C266.733 340.289 264.465 340.665 262.05 340.665C258.495 340.665 255.497 340.334 253.061 339.674C250.622 339.013 248.686 337.931 247.25 336.427C245.814 334.923 244.812 332.93 244.241 330.446C243.672 327.963 243.478 324.875 243.661 321.183C243.979 313.892 244.105 308.07 244.037 303.717C243.969 299.365 243.752 296.027 243.387 293.702C243.023 291.378 242.555 289.851 241.987 289.122C241.417 288.393 240.812 288.028 240.175 288.028C238.988 288.028 237.805 288.974 236.62 290.865C235.434 292.757 234.296 295.183 233.201 298.145C232.108 301.108 231.083 304.389 230.126 307.989C229.169 311.59 228.303 315.088 227.528 318.482C226.753 321.878 226.092 324.954 225.546 327.711C224.999 330.469 224.611 332.508 224.384 333.829C224.247 334.558 223.974 335.322 223.564 336.119C223.154 336.917 222.549 337.657 221.752 338.341C220.953 339.025 219.951 339.594 218.744 340.05C217.536 340.505 216.066 340.734 214.335 340.734C212.192 340.734 210.404 340.631 208.969 340.426C207.534 340.221 206.245 339.97 205.107 339.674C203.967 339.377 202.896 339.059 201.894 338.717C200.891 338.375 199.763 338.068 198.51 337.794C197.256 337.521 195.785 337.293 194.101 337.11C192.413 336.928 190.317 336.86 187.812 336.905L187.949 264.582Z" fill="white" stroke="#EE787F" stroke-width="42" stroke-miterlimit="10" stroke-linecap="round" stroke-linejoin="round"/>
<path d="M285.404 264.582L321.498 262.189C321.225 266.747 320.996 271.076 320.814 275.177C320.722 276.909 320.643 278.687 320.575 280.509C320.507 282.332 320.438 284.075 320.37 285.738C320.302 287.402 320.255 288.928 320.233 290.318C320.21 291.709 320.199 292.881 320.199 293.839C321.474 289.783 322.876 285.818 324.403 281.944C325.929 278.071 327.786 274.63 329.974 271.622C332.162 268.614 334.77 266.187 337.801 264.342C340.831 262.496 344.511 261.573 348.841 261.573C355.13 261.573 360.314 262.849 364.392 265.401C368.472 267.954 371.649 271.508 373.929 276.065C376.208 280.623 377.677 286.035 378.339 292.3C378.997 298.567 379.056 305.414 378.509 312.842C378.099 318.584 377.323 323.267 376.185 326.89C375.047 330.513 373.644 333.339 371.98 335.367C370.318 337.395 368.427 338.785 366.308 339.537C364.188 340.289 361.921 340.665 359.506 340.665C355.951 340.665 352.954 340.334 350.517 339.674C348.079 339.013 346.142 337.931 344.706 336.427C343.27 334.923 342.268 332.93 341.697 330.446C341.128 327.963 340.934 324.875 341.117 321.183C341.435 313.892 341.56 308.07 341.493 303.717C341.425 299.365 341.208 296.027 340.844 293.702C340.479 291.378 340.012 289.851 339.443 289.122C338.873 288.393 338.269 288.028 337.631 288.028C336.445 288.028 335.26 288.974 334.076 290.865C332.89 292.757 331.752 295.183 330.658 298.145C329.564 301.108 328.538 304.389 327.582 307.989C326.625 311.59 325.759 315.088 324.984 318.482C324.209 321.878 323.548 324.954 323.002 327.711C322.454 330.469 322.067 332.508 321.839 333.829C321.703 334.558 321.43 335.322 321.02 336.119C320.61 336.917 320.005 337.657 319.208 338.341C318.41 339.025 317.407 339.594 316.2 340.05C314.992 340.505 313.522 340.734 311.79 340.734C309.648 340.734 307.86 340.631 306.425 340.426C304.99 340.221 303.701 339.97 302.563 339.674C301.423 339.377 300.352 339.059 299.35 338.717C298.347 338.375 297.219 338.068 295.966 337.794C294.712 337.521 293.242 337.293 291.556 337.11C289.87 336.928 287.773 336.86 285.268 336.905L285.404 264.582Z" fill="white" stroke="#EE787F" stroke-width="42" stroke-miterlimit="10" stroke-linecap="round" stroke-linejoin="round"/>
<path d="M472.367 310.793C473.324 310.793 474.406 310.919 475.613 311.169C476.822 311.42 477.961 311.818 479.033 312.365C480.103 312.912 480.992 313.595 481.697 314.416C482.404 315.236 482.758 316.193 482.758 317.287C482.758 319.611 482.61 321.446 482.313 322.79C482.018 324.135 481.641 325.206 481.186 326.003C480.729 326.801 480.206 327.439 479.614 327.917C479.022 328.395 478.452 328.932 477.905 329.523C476.719 330.845 475.227 332.03 473.428 333.078C471.627 334.127 469.668 335.072 467.547 335.915C465.428 336.759 463.219 337.487 460.918 338.103C458.615 338.718 456.359 339.231 454.148 339.641C451.939 340.051 449.82 340.359 447.793 340.564C445.764 340.769 443.998 340.872 442.494 340.872C431.785 340.872 422.955 339.767 416.006 337.557C409.055 335.347 403.553 332.134 399.496 327.918C395.439 323.703 392.613 318.576 391.019 312.537C389.423 306.499 388.626 299.651 388.626 291.995C388.626 283.382 389.64 275.681 391.669 268.89C393.696 262.1 396.864 256.346 401.171 251.629C405.478 246.912 410.968 243.301 417.646 240.794C424.322 238.288 432.33 237.034 441.673 237.034C444.954 237.034 448.327 237.171 451.79 237.444C455.253 237.717 458.706 238.196 462.147 238.88C465.586 239.564 468.983 240.476 472.333 241.614C475.683 242.754 478.884 244.167 481.937 245.852C483.123 246.491 484.318 247.824 485.525 249.851C486.734 251.879 487.748 254.294 488.568 257.097C489.388 259.9 489.89 262.942 490.072 266.223C490.254 269.504 489.89 272.706 488.978 275.827C488.066 278.949 486.494 281.854 484.261 284.543C482.029 287.232 478.906 289.374 474.896 290.969L448.373 278.254C449.057 276.705 449.693 275.28 450.287 273.982C450.879 272.683 451.336 271.499 451.654 270.427C451.972 269.357 452.121 268.376 452.099 267.488C452.076 266.599 451.835 265.791 451.38 265.061C450.833 264.332 449.989 263.774 448.851 263.386C447.712 262.999 446.185 262.76 444.271 262.668C441.718 262.577 439.326 263.227 437.093 264.616C434.861 266.007 432.923 268.114 431.282 270.939C429.641 273.765 428.343 277.296 427.386 281.535C426.429 285.774 425.95 290.65 425.95 296.164C425.95 299.855 426.268 303.297 426.907 306.486C427.546 309.676 428.571 312.399 429.983 314.655C431.395 316.911 433.208 318.62 435.419 319.782C437.628 320.944 440.306 321.366 443.45 321.047C446.229 320.819 448.702 320.409 450.868 319.817C453.032 319.225 454.97 318.552 456.679 317.8C458.388 317.048 459.937 316.251 461.327 315.407C462.716 314.564 464.026 313.801 465.257 313.117C466.488 312.433 467.673 311.876 468.812 311.442C469.951 311.01 471.136 310.793 472.367 310.793Z" fill="white" stroke="#EE787F" stroke-width="42" stroke-miterlimit="10" stroke-linecap="round" stroke-linejoin="round"/>
<path d="M508.128 259.113C508.128 258.475 507.763 258.019 507.034 257.746C506.304 257.473 505.382 257.211 504.264 256.96C503.147 256.71 501.94 256.402 500.641 256.037C499.342 255.673 498.135 255.092 497.018 254.294C495.901 253.497 494.979 252.392 494.25 250.979C493.52 249.567 493.156 247.698 493.156 245.374C493.156 240.635 494.875 237.205 498.316 235.086C501.757 232.967 506.781 231.907 513.39 231.907C516.398 231.907 519.097 232.158 521.49 232.659C523.883 233.161 525.922 233.947 527.609 235.017C529.295 236.088 530.582 237.478 531.47 239.187C532.358 240.896 532.804 242.958 532.804 245.374C532.804 247.653 532.46 249.499 531.779 250.911C531.093 252.324 530.228 253.43 529.181 254.226C528.132 255.024 527.003 255.605 525.796 255.969C524.589 256.334 523.46 256.642 522.411 256.892C521.362 257.143 520.499 257.405 519.815 257.678C519.131 257.951 518.79 258.407 518.79 259.045V259.797C518.79 260.162 518.915 260.446 519.165 260.651C519.415 260.856 519.995 261.073 520.909 261.3C521.638 261.529 522.606 261.631 523.813 261.608C525.02 261.586 526.206 261.791 527.368 262.223C528.53 262.657 529.511 263.465 530.307 264.65C531.104 265.836 531.457 267.726 531.368 270.324L528.77 339.982L494.18 337.521L494.043 270.187C494.043 268.456 494.248 267.066 494.658 266.017C495.068 264.969 495.603 264.149 496.263 263.556C496.923 262.964 497.675 262.565 498.519 262.36C499.361 262.155 500.228 262.018 501.117 261.95C502.006 261.882 502.871 261.837 503.715 261.813C504.557 261.791 505.322 261.688 506.006 261.505C507.418 261.05 508.125 260.48 508.125 259.796V259.113H508.128Z" fill="white" stroke="#EE787F" stroke-width="42" stroke-miterlimit="10" stroke-linecap="round" stroke-linejoin="round"/>
<path d="M533.904 266.359L542.927 266.017C543.064 262.144 543.212 258.453 543.372 254.943C543.53 251.434 543.655 248.312 543.747 245.578C543.884 242.389 544.02 239.449 544.157 236.76L581.345 236.35C581.161 238.994 580.98 241.842 580.798 244.895C580.616 247.493 580.409 250.49 580.183 253.884C579.954 257.28 579.728 260.868 579.499 264.651L590.983 264.241C591.848 264.196 592.727 264.446 593.616 264.993C594.505 265.54 595.302 266.304 596.009 267.283C596.714 268.263 597.284 269.402 597.718 270.701C598.15 272 598.366 273.401 598.366 274.905C598.366 276.045 598.081 277.15 597.512 278.22C596.94 279.291 596.213 280.237 595.324 281.057C594.435 281.877 593.42 282.538 592.281 283.039C591.142 283.541 590.002 283.791 588.863 283.791H578.404C578.222 286.571 578.062 289.226 577.925 291.755C577.788 294.284 577.663 296.586 577.55 298.659C577.435 300.733 577.355 302.511 577.31 303.991C577.265 305.472 577.242 306.554 577.242 307.238C577.242 309.699 577.539 311.876 578.131 313.766C578.723 315.658 579.522 317.105 580.524 318.107C581.344 318.927 582.233 319.303 583.19 319.235C584.147 319.167 585.161 318.917 586.233 318.483C587.303 318.05 588.421 317.549 589.581 316.979C590.745 316.41 591.917 315.988 593.102 315.714C594.287 315.44 595.471 315.464 596.657 315.782C597.843 316.101 599.026 316.922 600.212 318.243C602.81 321.297 604.007 324.031 603.802 326.446C603.595 328.862 602.491 330.981 600.486 332.803C598.48 334.626 595.861 336.164 592.625 337.417C589.389 338.67 586.039 339.649 582.576 340.356C579.113 341.062 575.82 341.495 572.697 341.655C569.576 341.814 567.127 341.712 565.349 341.347C561.019 340.481 557.351 339.057 554.343 337.075C551.335 335.093 548.886 332.666 546.993 329.795C545.102 326.924 543.723 323.654 542.858 319.985C541.993 316.317 541.559 312.363 541.559 308.125C541.559 307.396 541.571 306.257 541.594 304.707C541.615 303.158 541.66 301.312 541.731 299.17C541.799 297.028 541.877 294.658 541.969 292.061C542.061 289.464 542.151 286.729 542.242 283.858H534.107L533.904 266.359Z" fill="white" stroke="#EE787F" stroke-width="42" stroke-miterlimit="10" stroke-linecap="round" stroke-linejoin="round"/>
<path d="M613.894 363.771C611.296 364.272 609.154 364.25 607.468 363.703C606.738 363.474 606.077 363.122 605.486 362.643C604.892 362.164 604.437 361.503 604.119 360.661C603.799 359.817 603.674 358.781 603.742 357.551C603.81 356.321 604.162 354.817 604.803 353.039C604.94 353.039 605.633 352.64 606.887 351.843C608.141 351.045 609.758 349.986 611.741 348.664C613.723 347.342 615.979 345.804 618.509 344.05C621.038 342.295 623.648 340.461 626.337 338.547C625.38 335.768 624.114 332.497 622.542 328.737C620.97 324.977 619.216 320.956 617.278 316.672C615.34 312.389 613.301 307.99 611.161 303.479C609.018 298.967 606.911 294.604 604.837 290.388C602.763 286.173 600.804 282.208 598.958 278.493C597.112 274.779 595.53 271.6 594.208 268.957L631.53 261.779C632.671 264.65 633.821 267.806 634.983 271.247C636.145 274.688 637.274 278.22 638.366 281.843C639.462 285.466 640.52 289.113 641.546 292.781C642.571 296.45 643.517 299.982 644.384 303.377C645.247 306.773 646.025 309.939 646.708 312.879C647.391 315.819 647.96 318.382 648.415 320.569C649.647 319.111 650.569 317.516 651.185 315.784C651.8 314.053 652.244 312.229 652.519 310.315C652.792 308.401 652.951 306.408 652.996 304.334C653.043 302.261 653.133 300.153 653.271 298.011C653.453 294.822 653.328 291.472 652.894 287.962C652.46 284.453 651.892 281.15 651.185 278.05C650.478 274.951 649.738 272.251 648.964 269.949C648.189 267.648 647.55 266.133 647.048 265.403C648.691 264.719 650.673 264.128 652.995 263.626C655.001 263.171 657.509 262.749 660.516 262.361C663.524 261.974 667.1 261.78 671.246 261.78C673.935 261.78 676.248 262.282 678.185 263.284C680.123 264.287 681.728 265.688 683.005 267.488C684.28 269.289 685.226 271.442 685.841 273.948C686.456 276.455 686.786 279.212 686.833 282.219C686.923 291.789 685.454 300.551 682.423 308.503C679.392 316.456 674.642 324.01 668.171 331.164C666.483 333.033 664.353 335.038 661.778 337.18C659.203 339.322 656.354 341.497 653.233 343.708C650.112 345.918 646.807 348.083 643.321 350.202C639.835 352.321 636.36 354.28 632.895 356.081C629.432 357.881 626.071 359.453 622.813 360.798C619.556 362.142 616.582 363.133 613.894 363.771Z" fill="white" stroke="#EE787F" stroke-width="42" stroke-miterlimit="10" stroke-linecap="round" stroke-linejoin="round"/>
<path d="M124.902 310.793C125.859 310.793 126.941 310.919 128.149 311.169C129.356 311.42 130.496 311.818 131.567 312.365C132.637 312.912 133.525 313.595 134.233 314.416C134.939 315.236 135.293 316.193 135.293 317.287C135.293 319.611 135.145 321.446 134.848 322.79C134.552 324.135 134.176 325.206 133.721 326.003C133.264 326.801 132.741 327.439 132.149 327.917C131.556 328.396 130.987 328.932 130.44 329.523C129.254 330.845 127.762 332.03 125.963 333.078C124.161 334.127 122.201 335.072 120.082 335.915C117.963 336.759 115.754 337.487 113.452 338.103C111.15 338.719 108.894 339.231 106.683 339.641C104.473 340.051 102.354 340.359 100.327 340.564C98.299 340.769 96.533 340.872 95.029 340.872C84.319 340.872 75.488 339.767 68.54 337.557C61.59 335.347 56.088 332.134 52.031 327.918C47.974 323.703 45.148 318.576 43.554 312.537C41.958 306.499 41.161 299.651 41.161 291.995C41.161 283.382 42.175 275.681 44.203 268.89C46.23 262.1 49.398 256.346 53.704 251.629C58.011 246.912 63.503 243.301 70.179 240.794C76.855 238.288 84.865 237.034 94.208 237.034C97.489 237.034 100.86 237.171 104.325 237.444C107.788 237.717 111.239 238.196 114.681 238.88C118.121 239.564 121.517 240.476 124.867 241.614C128.217 242.754 131.418 244.167 134.471 245.852C135.657 246.491 136.853 247.824 138.061 249.851C139.268 251.879 140.283 254.294 141.103 257.097C141.922 259.9 142.424 262.942 142.607 266.223C142.789 269.504 142.424 272.706 141.513 275.827C140.6 278.949 139.029 281.854 136.796 284.543C134.563 287.232 131.441 289.374 127.431 290.969L100.908 278.254C101.592 276.705 102.229 275.28 102.822 273.982C103.414 272.683 103.869 271.499 104.189 270.427C104.507 269.357 104.656 268.376 104.633 267.488C104.61 266.599 104.37 265.791 103.915 265.061C103.368 264.332 102.524 263.774 101.386 263.386C100.245 262.999 98.72 262.76 96.806 262.668C94.253 262.577 91.861 263.227 89.628 264.616C87.395 266.007 85.458 268.114 83.817 270.939C82.176 273.765 80.878 277.296 79.921 281.535C78.964 285.774 78.485 290.65 78.485 296.164C78.485 299.855 78.803 303.297 79.442 306.486C80.08 309.676 81.105 312.399 82.518 314.655C83.93 316.911 85.742 318.62 87.952 319.782C90.163 320.944 92.841 321.366 95.985 321.047C98.764 320.819 101.237 320.409 103.402 319.817C105.566 319.225 107.504 318.552 109.213 317.8C110.921 317.048 112.47 316.251 113.86 315.407C115.251 314.564 116.561 313.801 117.792 313.117C119.023 312.433 120.207 311.876 121.347 311.442C122.486 311.01 123.672 310.793 124.902 310.793Z" fill="white"/>
<path d="M160.662 259.113C160.662 258.475 160.297 258.019 159.568 257.746C158.839 257.473 157.916 257.211 156.799 256.96C155.682 256.71 154.475 256.402 153.176 256.037C151.877 255.673 150.669 255.092 149.553 254.294C148.436 253.497 147.513 252.392 146.784 250.979C146.055 249.567 145.69 247.698 145.69 245.374C145.69 240.635 147.409 237.205 150.851 235.086C154.291 232.967 159.316 231.907 165.924 231.907C168.932 231.907 171.632 232.158 174.025 232.659C176.418 233.161 178.457 233.947 180.143 235.017C181.829 236.088 183.117 237.478 184.005 239.187C184.893 240.896 185.337 242.958 185.337 245.374C185.337 247.653 184.996 249.499 184.313 250.911C183.629 252.324 182.762 253.43 181.715 254.226C180.666 255.024 179.538 255.605 178.331 255.969C177.123 256.334 175.995 256.642 174.947 256.892C173.898 257.143 173.032 257.405 172.349 257.678C171.665 257.951 171.324 258.407 171.324 259.045V259.797C171.324 260.162 171.448 260.446 171.7 260.651C171.95 260.856 172.531 261.073 173.443 261.3C174.172 261.529 175.14 261.631 176.348 261.608C177.555 261.586 178.741 261.791 179.903 262.223C181.065 262.657 182.045 263.465 182.841 264.65C183.639 265.836 183.991 267.726 183.902 270.324L181.304 339.982L146.714 337.521L146.577 270.187C146.577 268.456 146.782 267.066 147.192 266.017C147.601 264.969 148.136 264.149 148.798 263.556C149.458 262.964 150.21 262.565 151.054 262.36C151.897 262.155 152.763 262.018 153.652 261.95C154.541 261.882 155.406 261.837 156.25 261.813C157.093 261.791 157.856 261.688 158.54 261.505C159.951 261.05 160.659 260.48 160.659 259.796V259.113H160.662Z" fill="white"/>
<path d="M187.949 264.582L224.043 262.189C223.769 266.747 223.541 271.076 223.359 275.177C223.267 276.909 223.188 278.687 223.12 280.509C223.052 282.332 222.983 284.075 222.914 285.738C222.847 287.402 222.801 288.928 222.778 290.318C222.755 291.709 222.744 292.881 222.744 293.839C224.019 289.783 225.421 285.818 226.948 281.944C228.474 278.071 230.332 274.63 232.519 271.622C234.706 268.614 237.315 266.187 240.346 264.342C243.376 262.496 247.055 261.573 251.386 261.573C257.675 261.573 262.859 262.849 266.938 265.401C271.016 267.954 274.195 271.508 276.474 276.065C278.752 280.623 280.222 286.035 280.883 292.3C281.543 298.567 281.6 305.414 281.054 312.842C280.644 318.584 279.868 323.267 278.73 326.89C277.59 330.513 276.188 333.339 274.525 335.367C272.861 337.395 270.971 338.785 268.852 339.537C266.733 340.289 264.465 340.665 262.05 340.665C258.495 340.665 255.497 340.334 253.061 339.674C250.622 339.013 248.686 337.931 247.25 336.427C245.814 334.923 244.812 332.93 244.241 330.446C243.672 327.963 243.478 324.875 243.661 321.183C243.979 313.892 244.105 308.07 244.037 303.717C243.969 299.365 243.752 296.027 243.387 293.702C243.023 291.378 242.555 289.851 241.987 289.122C241.417 288.393 240.812 288.028 240.175 288.028C238.988 288.028 237.805 288.974 236.62 290.865C235.434 292.757 234.296 295.183 233.201 298.145C232.108 301.108 231.083 304.389 230.126 307.989C229.169 311.59 228.303 315.088 227.528 318.482C226.753 321.878 226.092 324.954 225.546 327.711C224.999 330.469 224.611 332.508 224.384 333.829C224.247 334.558 223.974 335.322 223.564 336.119C223.154 336.917 222.549 337.657 221.752 338.341C220.953 339.025 219.951 339.594 218.744 340.05C217.536 340.505 216.066 340.734 214.335 340.734C212.192 340.734 210.404 340.631 208.969 340.426C207.534 340.221 206.245 339.97 205.107 339.674C203.967 339.377 202.896 339.059 201.894 338.717C200.891 338.375 199.763 338.068 198.51 337.794C197.256 337.521 195.785 337.293 194.101 337.11C192.413 336.928 190.317 336.86 187.812 336.905L187.949 264.582Z" fill="white"/>
<path d="M285.404 264.582L321.498 262.189C321.225 266.747 320.996 271.076 320.814 275.177C320.722 276.909 320.643 278.687 320.575 280.509C320.507 282.332 320.438 284.075 320.37 285.738C320.302 287.402 320.255 288.928 320.233 290.318C320.21 291.709 320.199 292.881 320.199 293.839C321.474 289.783 322.876 285.818 324.403 281.944C325.929 278.071 327.786 274.63 329.974 271.622C332.162 268.614 334.77 266.187 337.801 264.342C340.831 262.496 344.511 261.573 348.841 261.573C355.13 261.573 360.314 262.849 364.392 265.401C368.472 267.954 371.649 271.508 373.929 276.065C376.208 280.623 377.677 286.035 378.339 292.3C378.997 298.567 379.056 305.414 378.509 312.842C378.099 318.584 377.323 323.267 376.185 326.89C375.047 330.513 373.644 333.339 371.98 335.367C370.318 337.395 368.427 338.785 366.308 339.537C364.188 340.289 361.921 340.665 359.506 340.665C355.951 340.665 352.954 340.334 350.517 339.674C348.079 339.013 346.142 337.931 344.706 336.427C343.27 334.923 342.268 332.93 341.697 330.446C341.128 327.963 340.934 324.875 341.117 321.183C341.435 313.892 341.56 308.07 341.493 303.717C341.425 299.365 341.208 296.027 340.844 293.702C340.479 291.378 340.012 289.851 339.443 289.122C338.873 288.393 338.269 288.028 337.631 288.028C336.445 288.028 335.26 288.974 334.076 290.865C332.89 292.757 331.752 295.183 330.658 298.145C329.564 301.108 328.538 304.389 327.582 307.989C326.625 311.59 325.759 315.088 324.984 318.482C324.209 321.878 323.548 324.954 323.002 327.711C322.454 330.469 322.067 332.508 321.839 333.829C321.703 334.558 321.43 335.322 321.02 336.119C320.61 336.917 320.005 337.657 319.208 338.341C318.41 339.025 317.407 339.594 316.2 340.05C314.992 340.505 313.522 340.734 311.79 340.734C309.648 340.734 307.86 340.631 306.425 340.426C304.99 340.221 303.701 339.97 302.563 339.674C301.423 339.377 300.352 339.059 299.35 338.717C298.347 338.375 297.219 338.068 295.966 337.794C294.712 337.521 293.242 337.293 291.556 337.11C289.87 336.928 287.773 336.86 285.268 336.905L285.404 264.582Z" fill="white"/>
<path d="M472.367 310.793C473.324 310.793 474.406 310.919 475.613 311.169C476.822 311.42 477.961 311.818 479.033 312.365C480.103 312.912 480.992 313.595 481.697 314.416C482.404 315.236 482.758 316.193 482.758 317.287C482.758 319.611 482.61 321.446 482.313 322.79C482.018 324.135 481.641 325.206 481.186 326.003C480.729 326.801 480.206 327.439 479.614 327.917C479.022 328.395 478.452 328.932 477.905 329.523C476.719 330.845 475.227 332.03 473.428 333.078C471.627 334.127 469.668 335.072 467.547 335.915C465.428 336.759 463.219 337.487 460.918 338.103C458.615 338.718 456.359 339.231 454.148 339.641C451.939 340.051 449.82 340.359 447.793 340.564C445.764 340.769 443.998 340.872 442.494 340.872C431.785 340.872 422.955 339.767 416.006 337.557C409.055 335.347 403.553 332.134 399.496 327.918C395.439 323.703 392.613 318.576 391.019 312.537C389.423 306.499 388.626 299.651 388.626 291.995C388.626 283.382 389.64 275.681 391.669 268.89C393.696 262.1 396.864 256.346 401.171 251.629C405.478 246.912 410.968 243.301 417.646 240.794C424.322 238.288 432.33 237.034 441.673 237.034C444.954 237.034 448.327 237.171 451.79 237.444C455.253 237.717 458.706 238.196 462.147 238.88C465.586 239.564 468.983 240.476 472.333 241.614C475.683 242.754 478.884 244.167 481.937 245.852C483.123 246.491 484.318 247.824 485.525 249.851C486.734 251.879 487.748 254.294 488.568 257.097C489.388 259.9 489.89 262.942 490.072 266.223C490.254 269.504 489.89 272.706 488.978 275.827C488.066 278.949 486.494 281.854 484.261 284.543C482.029 287.232 478.906 289.374 474.896 290.969L448.373 278.254C449.057 276.705 449.693 275.28 450.287 273.982C450.879 272.683 451.336 271.499 451.654 270.427C451.972 269.357 452.121 268.376 452.099 267.488C452.076 266.599 451.835 265.791 451.38 265.061C450.833 264.332 449.989 263.774 448.851 263.386C447.712 262.999 446.185 262.76 444.271 262.668C441.718 262.577 439.326 263.227 437.093 264.616C434.861 266.007 432.923 268.114 431.282 270.939C429.641 273.765 428.343 277.296 427.386 281.535C426.429 285.774 425.95 290.65 425.95 296.164C425.95 299.855 426.268 303.297 426.907 306.486C427.546 309.676 428.571 312.399 429.983 314.655C431.395 316.911 433.208 318.62 435.419 319.782C437.628 320.944 440.306 321.366 443.45 321.047C446.229 320.819 448.702 320.409 450.868 319.817C453.032 319.225 454.97 318.552 456.679 317.8C458.388 317.048 459.937 316.251 461.327 315.407C462.716 314.564 464.026 313.801 465.257 313.117C466.488 312.433 467.673 311.876 468.812 311.442C469.951 311.01 471.136 310.793 472.367 310.793Z" fill="white"/>
<path d="M508.128 259.113C508.128 258.475 507.763 258.019 507.034 257.746C506.304 257.473 505.382 257.211 504.264 256.96C503.147 256.71 501.94 256.402 500.641 256.037C499.342 255.673 498.135 255.092 497.018 254.294C495.901 253.497 494.979 252.392 494.25 250.979C493.52 249.567 493.156 247.698 493.156 245.374C493.156 240.635 494.875 237.205 498.316 235.086C501.757 232.967 506.781 231.907 513.39 231.907C516.398 231.907 519.097 232.158 521.49 232.659C523.883 233.161 525.922 233.947 527.609 235.017C529.295 236.088 530.582 237.478 531.47 239.187C532.358 240.896 532.804 242.958 532.804 245.374C532.804 247.653 532.46 249.499 531.779 250.911C531.093 252.324 530.228 253.43 529.181 254.226C528.132 255.024 527.003 255.605 525.796 255.969C524.589 256.334 523.46 256.642 522.411 256.892C521.362 257.143 520.499 257.405 519.815 257.678C519.131 257.951 518.79 258.407 518.79 259.045V259.797C518.79 260.162 518.915 260.446 519.165 260.651C519.415 260.856 519.995 261.073 520.909 261.3C521.638 261.529 522.606 261.631 523.813 261.608C525.02 261.586 526.206 261.791 527.368 262.223C528.53 262.657 529.511 263.465 530.307 264.65C531.104 265.836 531.457 267.726 531.368 270.324L528.77 339.982L494.18 337.521L494.043 270.187C494.043 268.456 494.248 267.066 494.658 266.017C495.068 264.969 495.603 264.149 496.263 263.556C496.923 262.964 497.675 262.565 498.519 262.36C499.361 262.155 500.228 262.018 501.117 261.95C502.006 261.882 502.871 261.837 503.715 261.813C504.557 261.791 505.322 261.688 506.006 261.505C507.418 261.05 508.125 260.48 508.125 259.796V259.113H508.128Z" fill="white"/>
<path d="M533.904 266.359L542.927 266.017C543.064 262.144 543.212 258.453 543.372 254.943C543.53 251.434 543.655 248.312 543.747 245.578C543.884 242.389 544.02 239.449 544.157 236.76L581.345 236.35C581.161 238.994 580.98 241.842 580.798 244.895C580.616 247.493 580.409 250.49 580.183 253.884C579.954 257.28 579.728 260.868 579.499 264.651L590.983 264.241C591.848 264.196 592.727 264.446 593.616 264.993C594.505 265.54 595.302 266.304 596.009 267.283C596.714 268.263 597.284 269.402 597.718 270.701C598.15 272 598.366 273.401 598.366 274.905C598.366 276.045 598.081 277.15 597.512 278.22C596.94 279.291 596.213 280.237 595.324 281.057C594.435 281.877 593.42 282.538 592.281 283.039C591.142 283.541 590.002 283.791 588.863 283.791H578.404C578.222 286.571 578.062 289.226 577.925 291.755C577.788 294.284 577.663 296.586 577.55 298.659C577.435 300.733 577.355 302.511 577.31 303.991C577.265 305.472 577.242 306.554 577.242 307.238C577.242 309.699 577.539 311.876 578.131 313.766C578.723 315.658 579.522 317.105 580.524 318.107C581.344 318.927 582.233 319.303 583.19 319.235C584.147 319.167 585.161 318.917 586.233 318.483C587.303 318.05 588.421 317.549 589.581 316.979C590.745 316.41 591.917 315.988 593.102 315.714C594.287 315.44 595.471 315.464 596.657 315.782C597.843 316.101 599.026 316.922 600.212 318.243C602.81 321.297 604.007 324.031 603.802 326.446C603.595 328.862 602.491 330.981 600.486 332.803C598.48 334.626 595.861 336.164 592.625 337.417C589.389 338.67 586.039 339.649 582.576 340.356C579.113 341.062 575.82 341.495 572.697 341.655C569.576 341.814 567.127 341.712 565.349 341.347C561.019 340.481 557.351 339.057 554.343 337.075C551.335 335.093 548.886 332.666 546.993 329.795C545.102 326.924 543.723 323.654 542.858 319.985C541.993 316.317 541.559 312.363 541.559 308.125C541.559 307.396 541.571 306.257 541.594 304.707C541.615 303.158 541.66 301.312 541.731 299.17C541.799 297.028 541.877 294.658 541.969 292.061C542.061 289.464 542.151 286.729 542.242 283.858H534.107L533.904 266.359Z" fill="white"/>
<path d="M613.894 363.771C611.296 364.272 609.154 364.25 607.468 363.703C606.738 363.474 606.077 363.122 605.486 362.643C604.892 362.164 604.437 361.503 604.119 360.661C603.799 359.817 603.674 358.781 603.742 357.551C603.81 356.321 604.162 354.817 604.803 353.039C604.94 353.039 605.633 352.64 606.887 351.843C608.141 351.045 609.758 349.986 611.741 348.664C613.723 347.342 615.979 345.804 618.509 344.05C621.038 342.295 623.648 340.461 626.337 338.547C625.38 335.768 624.114 332.497 622.542 328.737C620.97 324.977 619.216 320.956 617.278 316.672C615.34 312.389 613.301 307.99 611.161 303.479C609.018 298.967 606.911 294.604 604.837 290.388C602.763 286.173 600.804 282.208 598.958 278.493C597.112 274.779 595.53 271.6 594.208 268.957L631.53 261.779C632.671 264.65 633.821 267.806 634.983 271.247C636.145 274.688 637.274 278.22 638.366 281.843C639.462 285.466 640.52 289.113 641.546 292.781C642.571 296.45 643.517 299.982 644.384 303.377C645.247 306.773 646.025 309.939 646.708 312.879C647.391 315.819 647.96 318.382 648.415 320.569C649.647 319.111 650.569 317.516 651.185 315.784C651.8 314.053 652.244 312.229 652.519 310.315C652.792 308.401 652.951 306.408 652.996 304.334C653.043 302.261 653.133 300.153 653.271 298.011C653.453 294.822 653.328 291.472 652.894 287.962C652.46 284.453 651.892 281.15 651.185 278.05C650.478 274.951 649.738 272.251 648.964 269.949C648.189 267.648 647.55 266.133 647.048 265.403C648.691 264.719 650.673 264.128 652.995 263.626C655.001 263.171 657.509 262.749 660.516 262.361C663.524 261.974 667.1 261.78 671.246 261.78C673.935 261.78 676.248 262.282 678.185 263.284C680.123 264.287 681.728 265.688 683.005 267.488C684.28 269.289 685.226 271.442 685.841 273.948C686.456 276.455 686.786 279.212 686.833 282.219C686.923 291.789 685.454 300.551 682.423 308.503C679.392 316.456 674.642 324.01 668.171 331.164C666.483 333.033 664.353 335.038 661.778 337.18C659.203 339.322 656.354 341.497 653.233 343.708C650.112 345.918 646.807 348.083 643.321 350.202C639.835 352.321 636.36 354.28 632.895 356.081C629.432 357.881 626.071 359.453 622.813 360.798C619.556 362.142 616.582 363.133 613.894 363.771Z" fill="white"/>
<path d="M547.878 159.499C547.622 152.375 547.733 145.323 546.575 138.215C546.167 135.441 545.669 132.803 544.997 130.178C543.071 122 539.772 114.504 533.923 108.523C531.249 105.778 527.538 103.96 523.741 102.496C522.608 101.857 521.315 101.378 520.098 100.96C520.836 105.458 520.502 109.584 519.418 113.698C516.324 125.651 509.037 134.48 499.773 141.589C487.496 151.016 473.605 156.622 458.955 160.705C422.738 170.806 386.053 177.533 348.444 178.337C346.614 178.491 344.85 178.495 343.046 178.495C309.265 178.201 276.67 171.155 244.89 159.256C237.034 156.304 229.022 152.862 221.8 148.702C219.356 147.258 216.095 145.47 214.646 143.063C214.195 142.295 214.132 141.384 214.448 140.891C214.72 140.852 215.049 140.843 215.431 140.897C216.147 140.995 216.827 141.293 217.47 141.632C218.863 142.431 220.179 143.47 221.599 144.206C222.267 144.605 222.974 144.981 223.7 145.295C226.52 146.401 229.5 147.001 232.483 147.552C234.156 147.719 235.808 147.97 237.491 148.062C239.26 148.283 241.018 148.304 242.823 148.118C246.772 147.965 252.277 146.602 256.003 143.895C257.984 142.679 259.59 140.979 260.414 139.002C260.507 138.73 260.651 138.625 260.779 138.398C261.391 138.267 262.016 138.272 262.683 138.408C262.896 138.658 263.124 138.793 263.298 139.088C264.687 141.231 265.213 143.617 265.554 146.118C266.02 149.475 267.9 151.467 270.154 152.6C272.51 154.317 275.517 154.707 277.908 154.301C278.945 154.055 279.839 153.608 280.607 152.92C281.688 152.379 282.586 151.391 283.292 150.257C284.135 148.817 284.886 146.273 286.268 145.039C286.816 144.771 287.438 144.742 288.182 145.042C293.129 146.805 298.184 142.735 302.971 145.444C306.824 147.674 308.153 152.934 311.325 155.911C317.318 161.494 321.88 157.698 327.206 153.903C335.45 147.993 343.968 149.61 353.435 150.979C358.527 151.704 362.546 150.948 366.892 154.058C371.019 157.04 373.951 161.81 379.415 157.422C383.272 154.318 382.442 148.84 385.704 145.412C395.274 134.974 406.954 162.968 415.02 146.927C415.922 145.06 417.258 143.545 418.78 142.305C419.18 141.951 419.581 141.637 419.989 141.318C423.542 139.311 426.901 139.022 430.21 140.544C433.618 142.119 435.507 146.074 439.521 146.883C443.357 147.686 446.652 141.719 449.972 139.924C457.314 136.055 465.589 141.402 468.917 132.372C473.282 133.057 476.921 133.372 478.942 129.015C479.819 127.208 478.813 123.875 480.04 122.538C482.206 120.136 485.485 123.01 487.374 120.316C489.216 117.72 486.854 113.655 488.212 110.645C493.388 112.189 496.747 118.286 502.614 116.372C511.296 113.445 506.733 105.463 507.317 99.399C507.991 91.45 508.215 88.429 505.186 84.7C504.145 83.143 502.721 81.99 501.362 80.814C493.251 73.707 481.089 71.041 470.774 67.128C473.803 72.194 475.87 76.848 475.504 82.331C475.816 84.271 475.861 86.164 475.861 88.012C475.861 86.166 475.816 84.273 475.504 82.331C475.432 86.976 473.365 91.014 470.389 94.274C465.789 99.175 460.473 103.351 454.762 106.69C449.117 109.964 443.174 112.371 436.944 114.001C408.442 121.151 377.132 132.605 347.365 127.974C336.434 126.369 323.755 125.713 312.532 125.757C294.909 125.95 280.654 123.672 263.132 121.242C257.118 119.604 250.898 118.515 245.093 115.992C238.207 113.051 231.751 109.497 227.743 102.542C226.605 100.643 225.831 100.285 224.237 100.893C223.495 100.373 222.653 100.614 221.325 101.128C214.016 104.371 206.554 107.105 199.845 111.738C193.501 115.975 184.093 123.865 184.822 132.369C184.924 133.519 186.131 139.099 188.045 139.063C188.18 139.177 188.328 139.389 188.489 139.458C190.383 143.438 188.71 148.349 189.473 152.474C190.464 157.807 193.493 161.906 197.606 164.099C200.445 165.931 203.901 166.744 207.624 166.37C212.578 165.919 217.482 165.106 222.48 165.989C223.831 166.285 225.039 166.684 226.152 167.294C228.226 168.594 229.705 170.724 230.587 173.699C231.92 178.263 232.496 183.056 233.473 187.797C234.221 191.38 235.067 195.077 237.299 198.257C238.172 199.438 239.094 200.205 240.069 200.578C241.804 201.977 243.749 201.761 245.815 200.181C246.286 199.872 246.789 199.523 247.305 199.091C250.094 196.525 251.742 193.122 254.155 190.232C255.884 188.248 257.928 186.42 260.118 184.845C262.164 183.398 264.322 182.05 266.497 180.945C269.377 179.618 272.408 179.67 275.191 181.07C276.501 181.866 277.729 182.965 278.806 184.253C279.623 185.325 280.354 186.454 281.169 187.53C282.615 189.367 284.307 190.907 286.277 191.927C288.129 193.089 290.213 193.786 292.653 193.492C297.469 193.029 301.424 189.423 306.482 189.842C308.044 190.056 309.354 190.405 310.441 190.866C314.17 193.389 314.72 198.262 315.761 202.911C316.728 207.662 315.259 213.732 315.615 218.535C315.943 222.654 316.513 226.732 318.371 230.45C319.6 232.977 321.133 234.552 322.806 235.284C325.297 237.082 328.286 236.709 331.576 234.14C331.972 233.832 332.368 233.551 332.836 233.297C337.084 229.756 339.878 225.608 340.295 219.654C340.81 212.941 343.431 207.705 348.071 204.073C349.43 203.182 350.925 202.364 352.667 201.66C361.112 198.27 370.153 192.399 379.543 195.485C380.572 195.826 381.57 196.215 382.404 196.754C389 200.483 393.058 207.204 393.549 214.766C393.858 218.22 394.553 221.778 396.26 224.822C397.36 226.701 398.733 227.894 400.17 228.554C402.44 230.124 405.029 230.033 407.598 228.105C408.368 227.545 409.131 226.99 409.887 226.062C411.803 224.058 413.162 221.555 414.075 218.905C414.954 216.949 415.913 215.409 417.309 214.298C418.512 213.542 420.049 213.003 421.87 212.963C423.903 212.923 426.081 212.513 427.622 211.327C428.108 211.034 428.54 210.701 428.983 210.32C430.713 208.708 431.157 206.15 431.844 203.933C433.242 199.437 434.418 193.557 438.51 190.523C439.535 190.038 440.715 189.707 441.813 189.769C442.637 189.821 443.35 190.088 444.034 190.274C446.628 192.065 447.841 195.443 448.739 198.517C449.313 200.872 450.057 203.127 451.085 205.189C451.88 207.026 452.905 209.075 454.827 209.954C455.005 210.004 455.157 210.045 455.253 210.193C455.528 210.301 455.679 210.535 455.944 210.626C457.731 211.463 459.303 210.961 460.665 209.864C461.364 209.489 461.89 208.891 462.515 208.357C464.587 205.974 464.523 202.439 465.435 199.537C466.322 196.544 467.513 193.611 469.132 190.904C469.97 189.326 471.019 187.502 472.536 186.327C472.829 186.092 473.063 185.998 473.407 185.796C474.874 185.348 476.919 185.626 478.249 186.151C478.337 186.174 478.456 186.315 478.491 186.334C480.368 187.569 481.766 189.523 483.346 191.241C484.524 192.47 486.987 194.739 489.393 196.082C491.616 197.198 494.11 198.238 496.315 196.546C498.71 194.76 499.36 191.384 499.422 188.673C499.563 186.888 499.305 185.254 499.256 183.472C499.014 179.403 499.254 175.355 500.363 171.502C501.213 168.221 503.088 165.62 505.609 163.632C505.683 163.568 505.888 163.407 505.97 163.347C507.24 162.614 508.493 162.516 509.599 162.891C510.365 163.393 510.929 164.311 511.546 165.457C512.796 168.061 513.401 172.919 516.751 173.825C519.747 174.782 522.595 169.998 524.97 168.919C527.488 167.815 530.269 169.003 532.763 169.558C535.402 170.001 538.167 169.582 540.271 167.895C541.97 166.716 542.423 164.75 543.886 163.344C543.808 163.423 544.9 164.143 544.964 164.17C545.452 164.411 546.03 164.399 546.513 164.173C547.894 163.764 547.943 162.571 547.915 161.387C547.9 160.715 547.89 160.047 547.878 159.499Z" fill="white"/>
</g>
<defs>
<filter id="filter0_d" x="-6" y="-5" width="740" height="440" filterUnits="userSpaceOnUse" color-interpolation-filters="sRGB">
<feFlood flood-opacity="0" result="BackgroundImageFix"/>
<feColorMatrix in="SourceAlpha" type="matrix" values="0 0 0 0 0 0 0 0 0 0 0 0 0 0 0 0 0 0 127 0"/>
<feOffset/>
<feGaussianBlur stdDeviation="10"/>
<feColorMatrix type="matrix" values="0 0 0 0 0 0 0 0 0 0 0 0 0 0 0 0 0 0 0.25 0"/>
<feBlend mode="normal" in2="BackgroundImageFix" result="effect1_dropShadow"/>
<feBlend mode="normal" in="SourceGraphic" in2="effect1_dropShadow" result="shape"/>
</filter>
</defs>
</svg>
