<svg width="700" height="400" viewBox="0 0 700 400" fill="none" xmlns="http://www.w3.org/2000/svg">
<path d="M347.196 274.593C333.922 274.593 323.679 273.786 313.988 271.979C310.622 271.333 307.17 271.01 303.831 270.698C299.814 270.322 295.661 269.933 291.493 268.991C278.986 266.012 266.32 265.254 252.911 264.45C240.301 263.695 227.261 262.913 214.062 260.155C203.024 257.826 190.258 254.384 179.219 246.498C166.739 237.519 161.35 218.765 160.525 205.43C160.289 201.637 160.382 197.907 160.471 194.299C160.53 191.954 160.59 189.528 160.554 187.176C160.459 181.136 159.683 174.971 158.932 169.01C158.585 166.255 158.226 163.406 157.935 160.583C156.646 148.331 155.718 137.26 157.419 125.905C160.051 108.406 169.01 95.5 184.046 87.544C192.16 83.311 198.719 80.785 205.218 79.397C204.683 69.64 208.536 61.674 216.674 55.702C226.772 48.248 238.961 43.393 255.027 40.429C256.664 40.114 258.328 39.815 259.992 39.517C265.455 38.537 271.103 37.523 276.438 35.737C276.551 35.693 276.642 35.654 276.715 35.621C276.701 33.769 277.293 32.05 278.428 30.646C281.442 26.971 284.796 23.192 289.864 20.728C303.172 14.387 316.967 12.069 328.708 10.637C339.443 9.283 350.458 8.595 361.432 8.595C365.219 8.595 369.078 8.677 372.906 8.837C392.016 9.641 408.247 12.958 422.525 18.976C429.059 21.757 434.11 24.5 438.429 27.614C445.825 32.92 450.933 38.194 454.491 44.202C454.774 44.638 454.945 44.772 456.315 45.034C469.752 47.196 481.466 52.27 491.047 60.102C495.592 63.695 499.294 67.864 502.326 72.817C502.626 73.272 503.08 73.616 503.952 74.007C503.999 74.028 504.046 74.05 504.091 74.073C506.471 75.291 509.044 76.302 511.532 77.28C513.917 78.217 516.383 79.186 518.754 80.358C526.364 84.18 530.415 91.063 533.616 97.215C539.802 108.644 541.525 121.817 542.334 132.012C542.629 135.752 542.447 139.456 542.271 143.038C542.115 146.218 541.967 149.222 542.129 152.226C542.13 152.237 542.138 152.322 542.142 152.558C542.775 163.169 541.67 176.309 539.029 189.569C538.505 192.139 538.035 199.051 537.621 205.15C537.216 211.109 536.833 216.738 536.371 219.358C534.735 228.615 530.269 237.547 524.425 243.253C511.675 255.597 497.425 257.297 482.339 259.096C476.178 259.831 469.807 260.591 463.235 262.1C455.104 263.962 447.102 264.983 439.362 265.969C431.548 266.965 423.466 267.994 415.448 269.892C401.278 273.295 386.707 273.681 372.615 274.055C369.911 274.126 367.207 274.199 364.507 274.29C358.371 274.454 352.85 274.593 347.196 274.593Z" fill="#EE787F"/>
<path d="M361.434 11.592C365.207 11.592 368.99 11.673 372.781 11.832C389.443 12.533 405.785 15.172 421.361 21.738C426.662 23.994 431.881 26.588 436.675 30.045C442.613 34.304 448.113 39.293 451.939 45.776C452.957 47.364 454.209 47.683 455.753 47.978C467.976 49.945 479.319 54.387 489.149 62.422C493.389 65.775 496.883 69.669 499.768 74.38C500.545 75.567 501.559 76.218 502.725 76.741C507.536 79.202 512.704 80.71 517.424 83.044C523.858 86.274 527.602 92.151 530.955 98.597C536.475 108.797 538.434 120.773 539.344 132.246C539.873 138.967 538.774 145.696 539.133 152.383C539.137 152.433 539.141 152.492 539.143 152.664C539.846 164.289 538.377 177.478 536.086 188.978C535.024 194.192 534.336 213.617 533.416 218.831C531.988 226.909 527.986 235.577 522.328 241.101C505.297 257.589 485.406 253.925 462.562 259.17C446.337 262.887 430.849 263.159 414.755 266.966C398.226 270.937 381.257 270.71 364.401 271.286C358.644 271.443 352.911 271.591 347.193 271.591C336.268 271.591 325.398 271.054 314.534 269.028C307.009 267.586 299.575 267.742 292.151 266.063C267.352 260.157 241.346 262.791 214.672 257.216C202.769 254.704 191.147 251.331 180.959 244.054C170.039 236.199 164.375 219.132 163.516 205.242C163.135 199.111 163.643 193.123 163.55 187.127C163.408 178.109 161.838 169.216 160.916 160.273C159.732 149.021 158.672 137.763 160.383 126.347C162.864 109.851 171.256 97.701 185.446 90.193C192.138 86.701 199.029 83.704 206.435 82.205C207.804 81.901 208.378 81.48 208.247 79.796C207.56 70.477 211.271 63.383 218.446 58.117C229.617 49.871 242.355 45.814 255.568 43.375C262.879 41.968 270.271 40.969 277.45 38.556C279.109 37.925 279.736 37.238 279.713 35.63C279.696 34.474 280.046 33.409 280.758 32.528C283.738 28.894 286.76 25.567 291.173 23.421C303.247 17.668 316.05 15.198 329.069 13.61C339.837 12.254 350.604 11.592 361.434 11.592ZM361.434 5.592C350.333 5.592 339.193 6.287 328.321 7.659C316.363 9.117 302.271 11.49 288.595 18.006C282.939 20.756 279.193 24.98 276.122 28.725C275.001 30.111 274.262 31.69 273.926 33.387C269.286 34.799 264.5 35.657 259.463 36.561C257.786 36.862 256.11 37.163 254.438 37.484C237.953 40.526 225.371 45.552 214.887 53.291C206.724 59.281 202.37 67.441 202.179 77.026C196.185 78.551 190.034 81.035 182.675 84.875C166.72 93.317 157.235 106.965 154.454 125.456C152.699 137.164 153.642 148.435 154.953 160.902C155.246 163.747 155.607 166.612 155.956 169.383C156.73 175.535 157.462 181.346 157.555 187.222C157.59 189.513 157.534 191.801 157.473 194.223C157.382 197.894 157.287 201.691 157.532 205.615C158.397 219.603 164.136 239.341 177.46 248.926C188.965 257.144 202.103 260.696 213.438 263.088C226.863 265.894 240.014 266.682 252.732 267.443C266.007 268.238 278.546 268.99 290.765 271.9C290.787 271.905 290.809 271.911 290.832 271.916C295.188 272.9 299.44 273.299 303.552 273.684C306.97 274.004 310.199 274.306 313.409 274.921C323.32 276.77 333.731 277.592 347.198 277.592C352.892 277.592 358.434 277.452 364.57 277.285C367.304 277.191 370 277.12 372.696 277.049C386.943 276.671 401.675 276.28 416.161 272.801C424.006 270.946 431.65 269.971 439.744 268.94C447.556 267.945 455.633 266.916 463.906 265.02C470.325 263.546 476.614 262.796 482.697 262.071C498.3 260.21 513.037 258.452 526.506 245.413C532.801 239.268 537.587 229.728 539.328 219.877C539.818 217.1 540.188 211.654 540.617 205.351C541.005 199.643 541.488 192.54 541.969 190.179C544.659 176.675 545.784 163.289 545.144 152.44C545.139 152.21 545.132 152.085 545.124 151.991C544.978 149.164 545.12 146.258 545.271 143.183C545.452 139.507 545.638 135.705 545.329 131.776C544.498 121.296 542.716 107.742 536.26 95.787C532.595 88.749 528.1 81.69 520.12 77.683C517.602 76.438 515.076 75.445 512.634 74.485C510.101 73.49 507.709 72.55 505.462 71.4C505.37 71.353 505.277 71.309 505.184 71.267C504.952 71.163 504.829 71.093 504.772 71.058C501.582 65.894 497.699 61.537 492.909 57.744C482.943 49.61 470.795 44.337 456.803 42.07C456.767 42.063 456.734 42.056 456.702 42.05C452.947 35.93 447.676 30.55 440.176 25.17C435.684 21.931 430.449 19.084 423.714 16.217C409.081 10.049 392.51 6.656 373.036 5.837C369.165 5.675 365.262 5.592 361.434 5.592Z" fill="#EE787F"/>
<path d="M533.878 144.499C533.622 137.375 533.733 130.323 532.575 123.215C532.167 120.441 531.669 117.803 530.997 115.178C529.071 107 525.772 99.504 519.923 93.523C517.249 90.778 513.538 88.96 509.741 87.496C508.608 86.857 507.315 86.378 506.098 85.96C506.836 90.458 506.502 94.584 505.418 98.698C502.324 110.651 495.037 119.48 485.773 126.589C473.496 136.016 459.605 141.622 444.955 145.705C408.738 155.806 372.053 162.533 334.444 163.337C332.614 163.491 330.85 163.495 329.046 163.495C295.265 163.201 262.67 156.155 230.89 144.256C223.034 141.304 215.022 137.862 207.8 133.702C205.356 132.258 202.095 130.47 200.646 128.063C200.195 127.295 200.132 126.384 200.448 125.891C200.72 125.852 201.049 125.843 201.431 125.897C202.147 125.995 202.827 126.293 203.47 126.632C204.863 127.431 206.179 128.47 207.599 129.206C208.267 129.605 208.974 129.981 209.7 130.295C212.52 131.401 215.5 132.001 218.483 132.552C220.156 132.719 221.808 132.97 223.491 133.062C225.26 133.283 227.018 133.304 228.823 133.118C232.772 132.965 238.277 131.602 242.003 128.895C243.984 127.679 245.59 125.979 246.414 124.002C246.507 123.73 246.651 123.625 246.779 123.398C247.391 123.267 248.016 123.272 248.683 123.408C248.896 123.658 249.124 123.793 249.298 124.088C250.687 126.231 251.213 128.617 251.554 131.118C252.02 134.475 253.9 136.467 256.154 137.6C258.51 139.317 261.517 139.707 263.908 139.301C264.945 139.055 265.839 138.608 266.607 137.92C267.688 137.379 268.586 136.391 269.292 135.257C270.135 133.817 270.886 131.273 272.268 130.039C272.816 129.771 273.438 129.742 274.182 130.042C279.129 131.805 284.184 127.735 288.971 130.444C292.824 132.674 294.153 137.934 297.325 140.911C303.318 146.494 307.88 142.698 313.206 138.903C321.45 132.993 329.968 134.61 339.435 135.979C344.527 136.704 348.546 135.948 352.892 139.058C357.019 142.04 359.951 146.81 365.415 142.422C369.272 139.318 368.442 133.84 371.704 130.412C381.274 119.974 392.954 147.968 401.02 131.927C401.922 130.06 403.258 128.545 404.78 127.305C405.18 126.951 405.581 126.637 405.989 126.318C409.542 124.311 412.901 124.022 416.21 125.544C419.618 127.119 421.507 131.074 425.521 131.883C429.357 132.686 432.652 126.719 435.972 124.924C443.314 121.055 451.589 126.402 454.917 117.372C459.282 118.057 462.921 118.372 464.942 114.015C465.819 112.208 464.813 108.875 466.04 107.538C468.206 105.136 471.485 108.01 473.374 105.316C475.216 102.72 472.854 98.655 474.212 95.645C479.388 97.189 482.747 103.286 488.614 101.372C497.296 98.445 492.733 90.463 493.317 84.399C493.991 76.45 494.215 73.429 491.186 69.7C490.145 68.143 488.721 66.99 487.362 65.814C479.251 58.707 467.089 56.041 456.774 52.128C459.803 57.194 461.87 61.848 461.504 67.331C461.816 69.271 461.861 71.164 461.861 73.012C461.861 71.166 461.816 69.273 461.504 67.331C461.432 71.976 459.365 76.014 456.389 79.274C451.789 84.175 446.473 88.351 440.762 91.69C435.117 94.964 429.174 97.371 422.944 99.001C394.442 106.151 363.132 117.605 333.365 112.974C322.434 111.369 309.755 110.713 298.532 110.757C280.909 110.95 266.654 108.672 249.132 106.242C243.118 104.604 236.898 103.515 231.093 100.992C224.207 98.051 217.751 94.497 213.743 87.542C212.605 85.643 211.831 85.285 210.237 85.893C209.495 85.373 208.653 85.614 207.325 86.128C200.016 89.371 192.554 92.105 185.845 96.738C179.501 100.975 170.093 108.865 170.822 117.369C170.924 118.519 172.131 124.099 174.045 124.063C174.18 124.177 174.328 124.389 174.489 124.458C176.383 128.438 174.71 133.349 175.473 137.474C176.464 142.807 179.493 146.906 183.606 149.099C186.445 150.931 189.901 151.744 193.624 151.37C198.578 150.919 203.482 150.106 208.48 150.989C209.831 151.285 211.039 151.684 212.152 152.294C214.226 153.594 215.705 155.724 216.587 158.699C217.92 163.263 218.496 168.056 219.473 172.797C220.221 176.38 221.067 180.077 223.299 183.257C224.172 184.438 225.094 185.205 226.069 185.578C227.804 186.977 229.749 186.761 231.815 185.181C232.286 184.872 232.789 184.523 233.305 184.091C236.094 181.525 237.742 178.122 240.155 175.232C241.884 173.248 243.928 171.42 246.118 169.845C248.164 168.398 250.322 167.05 252.497 165.945C255.377 164.618 258.408 164.67 261.191 166.07C262.501 166.866 263.729 167.965 264.806 169.253C265.623 170.325 266.354 171.454 267.169 172.53C268.615 174.367 270.307 175.907 272.277 176.927C274.129 178.089 276.213 178.786 278.653 178.492C283.469 178.029 287.424 174.423 292.482 174.842C294.044 175.056 295.354 175.405 296.441 175.866C300.17 178.389 300.72 183.262 301.761 187.911C302.728 192.662 301.259 198.732 301.615 203.535C301.943 207.654 302.513 211.732 304.371 215.45C305.6 217.977 307.133 219.552 308.806 220.284C311.297 222.082 314.286 221.709 317.576 219.14C317.972 218.832 318.368 218.551 318.836 218.297C323.084 214.756 325.878 210.608 326.295 204.654C326.81 197.941 329.431 192.705 334.071 189.073C335.43 188.182 336.925 187.364 338.667 186.66C347.112 183.27 356.153 177.399 365.543 180.485C366.572 180.826 367.57 181.215 368.404 181.754C375 185.483 379.058 192.204 379.549 199.766C379.858 203.22 380.553 206.778 382.26 209.822C383.36 211.701 384.733 212.894 386.17 213.554C388.44 215.124 391.029 215.033 393.598 213.105C394.368 212.545 395.131 211.99 395.887 211.062C397.803 209.058 399.162 206.555 400.075 203.905C400.954 201.949 401.913 200.409 403.309 199.298C404.512 198.542 406.049 198.003 407.87 197.963C409.903 197.923 412.081 197.513 413.622 196.327C414.108 196.034 414.54 195.701 414.983 195.32C416.713 193.708 417.157 191.15 417.844 188.933C419.242 184.437 420.418 178.557 424.51 175.523C425.535 175.038 426.715 174.707 427.813 174.769C428.637 174.821 429.35 175.088 430.034 175.274C432.628 177.065 433.841 180.443 434.739 183.517C435.313 185.872 436.057 188.127 437.085 190.189C437.88 192.026 438.905 194.075 440.827 194.954C441.005 195.004 441.157 195.045 441.253 195.193C441.528 195.301 441.679 195.535 441.944 195.626C443.731 196.463 445.303 195.961 446.665 194.864C447.364 194.489 447.89 193.891 448.515 193.357C450.587 190.974 450.523 187.439 451.435 184.537C452.322 181.544 453.513 178.611 455.132 175.904C455.97 174.326 457.019 172.502 458.536 171.327C458.829 171.092 459.063 170.998 459.407 170.796C460.874 170.348 462.919 170.626 464.249 171.151C464.337 171.174 464.456 171.315 464.491 171.334C466.368 172.569 467.766 174.523 469.346 176.241C470.524 177.47 472.987 179.739 475.393 181.082C477.616 182.198 480.11 183.238 482.315 181.546C484.71 179.76 485.36 176.384 485.422 173.673C485.563 171.888 485.305 170.254 485.256 168.472C485.014 164.403 485.254 160.355 486.363 156.502C487.213 153.221 489.088 150.62 491.609 148.632C491.683 148.568 491.888 148.407 491.97 148.347C493.24 147.614 494.493 147.516 495.599 147.891C496.365 148.393 496.929 149.311 497.546 150.457C498.796 153.061 499.401 157.919 502.751 158.825C505.747 159.782 508.595 154.998 510.97 153.919C513.488 152.815 516.269 154.003 518.763 154.558C521.402 155.001 524.167 154.582 526.271 152.895C527.97 151.716 528.423 149.75 529.886 148.344C529.808 148.423 530.9 149.143 530.964 149.17C531.452 149.411 532.03 149.399 532.513 149.173C533.894 148.764 533.943 147.571 533.915 146.387C533.9 145.715 533.89 145.047 533.878 144.499Z" fill="white"/>
<path d="M220.504 73.051C222.35 74.101 225.151 73.989 226.97 73.644C228.578 73.327 232.706 70.484 233.852 72.888C234.709 74.578 232.87 77.123 232.799 79.012C232.721 81.251 233.581 83.345 235.375 84.79C235.923 85.196 236.463 85.402 237.008 85.687C239.488 87.465 242.12 87.22 244.729 85.603C245.646 84.96 246.553 84.429 247.451 83.76C248.424 83.08 250.391 80.909 251.663 81.299C253.038 81.831 254.769 85.212 255.722 86.291C258.966 89.881 261.277 88.527 265.622 89.083C268.07 89.451 269.681 90.775 271.937 91.542C275.461 92.723 279.096 92.785 282.813 93.105C290.733 93.776 298.485 92.791 306.451 93.795C313.468 94.602 320.343 98.215 327.45 98.008C333.538 97.937 336.089 92.796 341.622 91.669C345.756 90.851 350.254 93.109 354.557 93.018C359.561 92.784 364.397 91.612 369.514 91.593C375.498 91.565 376.53 90.254 380.754 86.892C385.004 83.716 386.928 85.889 391.145 84.611C395.403 83.452 395.885 78.227 400.207 77.105C407.441 75.195 419.602 95.991 425.236 83.483C426.285 81.235 426.359 78.925 426.556 76.442C426.679 72.196 428.046 70.827 431.966 70.687C433.427 70.639 434.929 70.463 436.386 70.395C441.456 70.029 442.335 68.537 443.46 64.041C444.446 60.353 443.669 58.166 443.149 55.459C444.542 48.597 444.063 43.456 438.616 36.546C434.177 30.872 427.05 27.16 420.434 24.24C406.385 18.099 391.524 15.827 376.526 14.758C371.395 14.401 366.266 14.309 361.284 14.364C345.944 14.386 330.733 16.214 315.692 18.992C310.043 20.08 304.261 21.441 299.068 23.828C297.179 24.798 292.033 26.826 292.463 29.601C292.644 30.75 293.836 31.589 295.372 32.355C297.115 33.457 299.622 34.267 301.56 35.265C301.85 35.429 302.169 35.704 302.369 35.997C302.52 35.809 302.896 36.475 303.317 37.243C303.093 37.871 302.887 38.377 302.699 39.009C301.578 42.332 302.117 43.502 305.296 44.562C306.678 44.987 308.084 45.254 309.608 45.007C314.61 44.336 316.251 46.104 316.255 51.361C316.26 54.384 318.67 57.38 322.248 57.002C324.586 56.834 326.519 55.831 327.839 53.847C329.255 51.637 330.937 51.298 333.116 52.358C334.437 52.897 335.668 53.834 337.205 53.948C341.204 54.348 343.713 51.604 346.468 49.164C346.45 49.157 346.388 49.154 346.37 49.15C347.855 48.729 349.44 48.389 351.011 48.337C354.224 48.237 357.337 48.973 360.365 47.941C361.275 47.643 361.787 47.269 362.383 46.852C365.516 44.142 364.354 41.088 368.297 40.271C371.485 39.709 376.274 42.423 378.742 44.267C383.668 48.017 385.379 44.621 383.328 39.733C382.474 37.431 380.387 35.961 378.058 34.992C368.878 31.546 358.704 31.284 348.697 31.298C346.646 31.293 344.629 31.3 342.592 31.303C341.098 31.3 339.635 31.293 338.164 31.27C338.137 31.27 338.115 31.239 338.051 31.214C351.013 24.845 364.441 23.408 378.326 28.307C379.496 28.808 380.615 29.326 381.744 29.941C390.668 34.845 389.162 45.489 387.627 53.676C386.166 60.958 381.803 66.977 375.039 70.278C372.859 71.272 370.652 72.246 368.361 73.041C359.248 76.326 349.481 75.888 340.008 75.214C330.809 74.555 321.493 74.755 312.41 73.071C302.498 71.412 293.083 67.277 286.994 59.124C285.175 56.636 283.806 53.937 282.935 51.008C282.323 49 282.304 44.652 279.899 43.62C277.869 42.815 275.162 43.525 273.088 43.924C269.819 44.616 266.572 45.423 263.241 45.871C259.669 46.449 256.091 46.791 252.531 47.383C242.727 49.214 233.685 54.755 225.917 60.734C224.014 62.224 222.12 63.761 220.51 65.589C219.212 67.058 218.072 69.965 219.114 71.797C219.441 72.306 219.946 72.717 220.504 73.051ZM374.966 39.78C374.989 39.804 375.011 39.828 375.034 39.853C374.228 39.32 373.914 38.928 374.966 39.78Z" fill="white"/>
<path d="M110.902 295.793C111.859 295.793 112.941 295.919 114.149 296.169C115.356 296.42 116.496 296.818 117.567 297.365C118.637 297.912 119.525 298.595 120.233 299.416C120.939 300.236 121.293 301.193 121.293 302.287C121.293 304.611 121.145 306.446 120.848 307.79C120.552 309.135 120.176 310.206 119.721 311.003C119.264 311.801 118.741 312.439 118.149 312.917C117.556 313.396 116.987 313.932 116.44 314.523C115.254 315.845 113.762 317.03 111.963 318.078C110.161 319.127 108.201 320.072 106.082 320.915C103.963 321.759 101.754 322.487 99.452 323.103C97.15 323.719 94.894 324.231 92.683 324.641C90.473 325.051 88.354 325.359 86.327 325.564C84.299 325.769 82.533 325.872 81.029 325.872C70.319 325.872 61.488 324.767 54.54 322.557C47.59 320.347 42.088 317.134 38.031 312.918C33.974 308.703 31.148 303.576 29.554 297.537C27.958 291.499 27.161 284.651 27.161 276.995C27.161 268.382 28.175 260.681 30.203 253.89C32.23 247.1 35.398 241.346 39.704 236.629C44.011 231.912 49.503 228.301 56.179 225.794C62.855 223.288 70.865 222.034 80.208 222.034C83.489 222.034 86.86 222.171 90.325 222.444C93.788 222.717 97.239 223.196 100.681 223.88C104.121 224.564 107.517 225.476 110.867 226.614C114.217 227.754 117.418 229.167 120.471 230.852C121.657 231.491 122.853 232.824 124.061 234.851C125.268 236.879 126.283 239.294 127.103 242.097C127.922 244.9 128.424 247.942 128.607 251.223C128.789 254.504 128.424 257.706 127.513 260.827C126.6 263.949 125.029 266.854 122.796 269.543C120.563 272.232 117.441 274.374 113.431 275.969L86.908 263.254C87.592 261.705 88.229 260.28 88.822 258.982C89.414 257.683 89.869 256.499 90.189 255.427C90.507 254.357 90.656 253.376 90.633 252.488C90.61 251.599 90.37 250.791 89.915 250.061C89.368 249.332 88.524 248.774 87.386 248.386C86.245 247.999 84.72 247.76 82.806 247.668C80.253 247.577 77.861 248.227 75.628 249.616C73.395 251.007 71.458 253.114 69.817 255.939C68.176 258.765 66.878 262.296 65.921 266.535C64.964 270.774 64.485 275.65 64.485 281.164C64.485 284.855 64.803 288.297 65.442 291.486C66.08 294.676 67.105 297.399 68.518 299.655C69.93 301.911 71.742 303.62 73.952 304.782C76.163 305.944 78.841 306.366 81.985 306.047C84.764 305.819 87.237 305.409 89.402 304.817C91.566 304.225 93.504 303.552 95.213 302.8C96.921 302.048 98.47 301.251 99.86 300.407C101.251 299.564 102.561 298.801 103.792 298.117C105.023 297.433 106.207 296.876 107.347 296.442C108.486 296.01 109.672 295.793 110.902 295.793Z" fill="white" stroke="#EE787F" stroke-width="42" stroke-miterlimit="10" stroke-linecap="round" stroke-linejoin="round"/>
<path d="M146.662 244.113C146.662 243.475 146.297 243.019 145.568 242.746C144.839 242.473 143.916 242.211 142.799 241.96C141.682 241.71 140.475 241.402 139.176 241.037C137.877 240.673 136.669 240.092 135.553 239.294C134.436 238.497 133.513 237.392 132.784 235.979C132.055 234.567 131.69 232.698 131.69 230.374C131.69 225.635 133.409 222.205 136.851 220.086C140.291 217.967 145.316 216.907 151.924 216.907C154.932 216.907 157.632 217.158 160.025 217.659C162.418 218.161 164.457 218.947 166.143 220.017C167.829 221.088 169.117 222.478 170.005 224.187C170.893 225.896 171.337 227.958 171.337 230.374C171.337 232.653 170.996 234.499 170.313 235.911C169.629 237.324 168.762 238.43 167.715 239.226C166.666 240.024 165.538 240.605 164.331 240.969C163.123 241.334 161.995 241.642 160.947 241.892C159.898 242.143 159.032 242.405 158.349 242.678C157.665 242.951 157.324 243.407 157.324 244.045V244.797C157.324 245.162 157.448 245.446 157.7 245.651C157.95 245.856 158.531 246.073 159.443 246.3C160.172 246.529 161.14 246.631 162.348 246.608C163.555 246.586 164.741 246.791 165.903 247.223C167.065 247.657 168.045 248.465 168.841 249.65C169.639 250.836 169.991 252.726 169.902 255.324L167.304 324.982L132.714 322.521L132.577 255.187C132.577 253.456 132.782 252.066 133.192 251.017C133.601 249.969 134.136 249.149 134.798 248.556C135.458 247.964 136.21 247.565 137.054 247.36C137.897 247.155 138.763 247.018 139.652 246.95C140.541 246.882 141.406 246.837 142.25 246.813C143.093 246.791 143.856 246.688 144.54 246.505C145.951 246.05 146.659 245.48 146.659 244.796V244.113H146.662Z" fill="white" stroke="#EE787F" stroke-width="42" stroke-miterlimit="10" stroke-linecap="round" stroke-linejoin="round"/>
<path d="M173.949 249.582L210.043 247.189C209.769 251.747 209.541 256.076 209.359 260.177C209.267 261.909 209.188 263.687 209.12 265.509C209.052 267.332 208.983 269.075 208.914 270.738C208.847 272.402 208.801 273.928 208.778 275.318C208.755 276.709 208.744 277.881 208.744 278.839C210.019 274.783 211.421 270.818 212.948 266.944C214.474 263.071 216.332 259.63 218.519 256.622C220.706 253.614 223.315 251.187 226.346 249.342C229.376 247.496 233.055 246.573 237.386 246.573C243.675 246.573 248.859 247.849 252.938 250.401C257.016 252.954 260.195 256.508 262.474 261.065C264.752 265.623 266.222 271.035 266.883 277.3C267.543 283.567 267.6 290.414 267.054 297.842C266.644 303.584 265.868 308.267 264.73 311.89C263.59 315.513 262.188 318.339 260.525 320.367C258.861 322.395 256.971 323.785 254.852 324.537C252.733 325.289 250.465 325.665 248.05 325.665C244.495 325.665 241.497 325.334 239.061 324.674C236.622 324.013 234.686 322.931 233.25 321.427C231.814 319.923 230.812 317.93 230.241 315.446C229.672 312.963 229.478 309.875 229.661 306.183C229.979 298.892 230.105 293.07 230.037 288.717C229.969 284.365 229.752 281.027 229.387 278.702C229.023 276.378 228.555 274.851 227.987 274.122C227.417 273.393 226.812 273.028 226.175 273.028C224.988 273.028 223.805 273.974 222.62 275.865C221.434 277.757 220.296 280.183 219.201 283.145C218.108 286.108 217.083 289.389 216.126 292.989C215.169 296.59 214.303 300.088 213.528 303.482C212.753 306.878 212.092 309.954 211.546 312.711C210.999 315.469 210.611 317.508 210.384 318.829C210.247 319.558 209.974 320.322 209.564 321.119C209.154 321.917 208.549 322.657 207.752 323.341C206.953 324.025 205.951 324.594 204.744 325.05C203.536 325.505 202.066 325.734 200.335 325.734C198.192 325.734 196.404 325.631 194.969 325.426C193.534 325.221 192.245 324.97 191.107 324.674C189.967 324.377 188.896 324.059 187.894 323.717C186.891 323.375 185.763 323.068 184.51 322.794C183.256 322.521 181.785 322.293 180.101 322.11C178.413 321.928 176.317 321.86 173.812 321.905L173.949 249.582Z" fill="white" stroke="#EE787F" stroke-width="42" stroke-miterlimit="10" stroke-linecap="round" stroke-linejoin="round"/>
<path d="M271.404 249.582L307.498 247.189C307.225 251.747 306.996 256.076 306.814 260.177C306.722 261.909 306.643 263.687 306.575 265.509C306.507 267.332 306.438 269.075 306.37 270.738C306.302 272.402 306.255 273.928 306.233 275.318C306.21 276.709 306.199 277.881 306.199 278.839C307.474 274.783 308.876 270.818 310.403 266.944C311.929 263.071 313.786 259.63 315.974 256.622C318.162 253.614 320.77 251.187 323.801 249.342C326.831 247.496 330.511 246.573 334.841 246.573C341.13 246.573 346.314 247.849 350.392 250.401C354.472 252.954 357.649 256.508 359.929 261.065C362.208 265.623 363.677 271.035 364.339 277.3C364.997 283.567 365.056 290.414 364.509 297.842C364.099 303.584 363.323 308.267 362.185 311.89C361.047 315.513 359.644 318.339 357.98 320.367C356.318 322.395 354.427 323.785 352.308 324.537C350.188 325.289 347.921 325.665 345.506 325.665C341.951 325.665 338.954 325.334 336.517 324.674C334.079 324.013 332.142 322.931 330.706 321.427C329.27 319.923 328.268 317.93 327.697 315.446C327.128 312.963 326.934 309.875 327.117 306.183C327.435 298.892 327.56 293.07 327.493 288.717C327.425 284.365 327.208 281.027 326.844 278.702C326.479 276.378 326.012 274.851 325.443 274.122C324.873 273.393 324.269 273.028 323.631 273.028C322.445 273.028 321.26 273.974 320.076 275.865C318.89 277.757 317.752 280.183 316.658 283.145C315.564 286.108 314.538 289.389 313.582 292.989C312.625 296.59 311.759 300.088 310.984 303.482C310.209 306.878 309.548 309.954 309.002 312.711C308.454 315.469 308.067 317.508 307.839 318.829C307.703 319.558 307.43 320.322 307.02 321.119C306.61 321.917 306.005 322.657 305.208 323.341C304.41 324.025 303.407 324.594 302.2 325.05C300.992 325.505 299.522 325.734 297.79 325.734C295.648 325.734 293.86 325.631 292.425 325.426C290.99 325.221 289.701 324.97 288.563 324.674C287.423 324.377 286.352 324.059 285.35 323.717C284.347 323.375 283.219 323.068 281.966 322.794C280.712 322.521 279.242 322.293 277.556 322.11C275.87 321.928 273.773 321.86 271.268 321.905L271.404 249.582Z" fill="white" stroke="#EE787F" stroke-width="42" stroke-miterlimit="10" stroke-linecap="round" stroke-linejoin="round"/>
<path d="M458.367 295.793C459.324 295.793 460.406 295.919 461.613 296.169C462.822 296.42 463.961 296.818 465.033 297.365C466.103 297.912 466.992 298.595 467.697 299.416C468.404 300.236 468.758 301.193 468.758 302.287C468.758 304.611 468.61 306.446 468.313 307.79C468.018 309.135 467.641 310.206 467.186 311.003C466.729 311.801 466.206 312.439 465.614 312.917C465.022 313.395 464.452 313.932 463.905 314.523C462.719 315.845 461.227 317.03 459.428 318.078C457.627 319.127 455.668 320.072 453.547 320.915C451.428 321.759 449.219 322.487 446.918 323.103C444.615 323.718 442.359 324.231 440.148 324.641C437.939 325.051 435.82 325.359 433.793 325.564C431.764 325.769 429.998 325.872 428.494 325.872C417.785 325.872 408.955 324.767 402.006 322.557C395.055 320.347 389.553 317.134 385.496 312.918C381.439 308.703 378.613 303.576 377.019 297.537C375.423 291.499 374.626 284.651 374.626 276.995C374.626 268.382 375.64 260.681 377.669 253.89C379.696 247.1 382.864 241.346 387.171 236.629C391.478 231.912 396.968 228.301 403.646 225.794C410.322 223.288 418.33 222.034 427.673 222.034C430.954 222.034 434.327 222.171 437.79 222.444C441.253 222.717 444.706 223.196 448.147 223.88C451.586 224.564 454.983 225.476 458.333 226.614C461.683 227.754 464.884 229.167 467.937 230.852C469.123 231.491 470.318 232.824 471.525 234.851C472.734 236.879 473.748 239.294 474.568 242.097C475.388 244.9 475.89 247.942 476.072 251.223C476.254 254.504 475.89 257.706 474.978 260.827C474.066 263.949 472.494 266.854 470.261 269.543C468.029 272.232 464.906 274.374 460.896 275.969L434.373 263.254C435.057 261.705 435.693 260.28 436.287 258.982C436.879 257.683 437.336 256.499 437.654 255.427C437.972 254.357 438.121 253.376 438.099 252.488C438.076 251.599 437.835 250.791 437.38 250.061C436.833 249.332 435.989 248.774 434.851 248.386C433.712 247.999 432.185 247.76 430.271 247.668C427.718 247.577 425.326 248.227 423.093 249.616C420.861 251.007 418.923 253.114 417.282 255.939C415.641 258.765 414.343 262.296 413.386 266.535C412.429 270.774 411.95 275.65 411.95 281.164C411.95 284.855 412.268 288.297 412.907 291.486C413.546 294.676 414.571 297.399 415.983 299.655C417.395 301.911 419.208 303.62 421.419 304.782C423.628 305.944 426.306 306.366 429.45 306.047C432.229 305.819 434.702 305.409 436.868 304.817C439.032 304.225 440.97 303.552 442.679 302.8C444.388 302.048 445.937 301.251 447.327 300.407C448.716 299.564 450.026 298.801 451.257 298.117C452.488 297.433 453.673 296.876 454.812 296.442C455.951 296.01 457.136 295.793 458.367 295.793Z" fill="white" stroke="#EE787F" stroke-width="42" stroke-miterlimit="10" stroke-linecap="round" stroke-linejoin="round"/>
<path d="M494.128 244.113C494.128 243.475 493.763 243.019 493.034 242.746C492.304 242.473 491.382 242.211 490.264 241.96C489.147 241.71 487.94 241.402 486.641 241.037C485.342 240.673 484.135 240.092 483.018 239.294C481.901 238.497 480.979 237.392 480.25 235.979C479.52 234.567 479.156 232.698 479.156 230.374C479.156 225.635 480.875 222.205 484.316 220.086C487.757 217.967 492.781 216.907 499.39 216.907C502.398 216.907 505.097 217.158 507.49 217.659C509.883 218.161 511.922 218.947 513.609 220.017C515.295 221.088 516.582 222.478 517.47 224.187C518.358 225.896 518.804 227.958 518.804 230.374C518.804 232.653 518.46 234.499 517.779 235.911C517.093 237.324 516.228 238.43 515.181 239.226C514.132 240.024 513.003 240.605 511.796 240.969C510.589 241.334 509.46 241.642 508.411 241.892C507.362 242.143 506.499 242.405 505.815 242.678C505.131 242.951 504.79 243.407 504.79 244.045V244.797C504.79 245.162 504.915 245.446 505.165 245.651C505.415 245.856 505.995 246.073 506.909 246.3C507.638 246.529 508.606 246.631 509.813 246.608C511.02 246.586 512.206 246.791 513.368 247.223C514.53 247.657 515.511 248.465 516.307 249.65C517.104 250.836 517.457 252.726 517.368 255.324L514.77 324.982L480.18 322.521L480.043 255.187C480.043 253.456 480.248 252.066 480.658 251.017C481.068 249.969 481.603 249.149 482.263 248.556C482.923 247.964 483.675 247.565 484.519 247.36C485.361 247.155 486.228 247.018 487.117 246.95C488.006 246.882 488.871 246.837 489.715 246.813C490.557 246.791 491.322 246.688 492.006 246.505C493.418 246.05 494.125 245.48 494.125 244.796V244.113H494.128Z" fill="white" stroke="#EE787F" stroke-width="42" stroke-miterlimit="10" stroke-linecap="round" stroke-linejoin="round"/>
<path d="M519.904 251.359L528.927 251.017C529.064 247.144 529.212 243.453 529.372 239.943C529.53 236.434 529.655 233.312 529.747 230.578C529.884 227.389 530.02 224.449 530.157 221.76L567.345 221.35C567.161 223.994 566.98 226.842 566.798 229.895C566.616 232.493 566.409 235.49 566.183 238.884C565.954 242.28 565.728 245.868 565.499 249.651L576.983 249.241C577.848 249.196 578.727 249.446 579.616 249.993C580.505 250.54 581.302 251.304 582.009 252.283C582.714 253.263 583.284 254.402 583.718 255.701C584.15 257 584.366 258.401 584.366 259.905C584.366 261.045 584.081 262.15 583.512 263.22C582.94 264.291 582.213 265.237 581.324 266.057C580.435 266.877 579.42 267.538 578.281 268.039C577.142 268.541 576.002 268.791 574.863 268.791H564.404C564.222 271.571 564.062 274.226 563.925 276.755C563.788 279.284 563.663 281.586 563.55 283.659C563.435 285.733 563.355 287.511 563.31 288.991C563.265 290.472 563.242 291.554 563.242 292.238C563.242 294.699 563.539 296.876 564.131 298.766C564.723 300.658 565.522 302.105 566.524 303.107C567.344 303.927 568.233 304.303 569.19 304.235C570.147 304.167 571.161 303.917 572.233 303.483C573.303 303.05 574.421 302.549 575.581 301.979C576.745 301.41 577.917 300.988 579.102 300.714C580.287 300.44 581.471 300.464 582.657 300.782C583.843 301.101 585.026 301.922 586.212 303.243C588.81 306.297 590.007 309.031 589.802 311.446C589.595 313.862 588.491 315.981 586.486 317.803C584.48 319.626 581.861 321.164 578.625 322.417C575.389 323.67 572.039 324.649 568.576 325.356C565.113 326.062 561.82 326.495 558.697 326.655C555.576 326.814 553.127 326.712 551.349 326.347C547.019 325.481 543.351 324.057 540.343 322.075C537.335 320.093 534.886 317.666 532.993 314.795C531.102 311.924 529.723 308.654 528.858 304.985C527.993 301.317 527.559 297.363 527.559 293.125C527.559 292.396 527.571 291.257 527.594 289.707C527.615 288.158 527.66 286.312 527.731 284.17C527.799 282.028 527.877 279.658 527.969 277.061C528.061 274.464 528.151 271.729 528.242 268.858H520.107L519.904 251.359Z" fill="white" stroke="#EE787F" stroke-width="42" stroke-miterlimit="10" stroke-linecap="round" stroke-linejoin="round"/>
<path d="M599.894 348.771C597.296 349.272 595.154 349.25 593.468 348.703C592.738 348.474 592.077 348.122 591.486 347.643C590.892 347.164 590.437 346.503 590.119 345.661C589.799 344.817 589.674 343.781 589.742 342.551C589.81 341.321 590.162 339.817 590.803 338.039C590.94 338.039 591.633 337.64 592.887 336.843C594.141 336.045 595.758 334.986 597.741 333.664C599.723 332.342 601.979 330.804 604.509 329.05C607.038 327.295 609.648 325.461 612.337 323.547C611.38 320.768 610.114 317.497 608.542 313.737C606.97 309.977 605.216 305.956 603.278 301.672C601.34 297.389 599.301 292.99 597.161 288.479C595.018 283.967 592.911 279.604 590.837 275.388C588.763 271.173 586.804 267.208 584.958 263.493C583.112 259.779 581.53 256.6 580.208 253.957L617.53 246.779C618.671 249.65 619.821 252.806 620.983 256.247C622.145 259.688 623.274 263.22 624.366 266.843C625.462 270.466 626.52 274.113 627.546 277.781C628.571 281.45 629.517 284.982 630.384 288.377C631.247 291.773 632.025 294.939 632.708 297.879C633.391 300.819 633.96 303.382 634.415 305.569C635.647 304.111 636.569 302.516 637.185 300.784C637.8 299.053 638.244 297.229 638.519 295.315C638.792 293.401 638.951 291.408 638.996 289.334C639.043 287.261 639.133 285.153 639.271 283.011C639.453 279.822 639.328 276.472 638.894 272.962C638.46 269.453 637.892 266.15 637.185 263.05C636.478 259.951 635.738 257.251 634.964 254.949C634.189 252.648 633.55 251.133 633.048 250.403C634.691 249.719 636.673 249.128 638.995 248.626C641.001 248.171 643.509 247.749 646.516 247.361C649.524 246.974 653.1 246.78 657.246 246.78C659.935 246.78 662.248 247.282 664.185 248.284C666.123 249.287 667.728 250.688 669.005 252.488C670.28 254.289 671.226 256.442 671.841 258.948C672.456 261.455 672.786 264.212 672.833 267.219C672.923 276.789 671.454 285.551 668.423 293.503C665.392 301.456 660.642 309.01 654.171 316.164C652.483 318.033 650.353 320.038 647.778 322.18C645.203 324.322 642.354 326.497 639.233 328.708C636.112 330.918 632.807 333.083 629.321 335.202C625.835 337.321 622.36 339.28 618.895 341.081C615.432 342.881 612.071 344.453 608.813 345.798C605.556 347.142 602.582 348.133 599.894 348.771Z" fill="white" stroke="#EE787F" stroke-width="42" stroke-miterlimit="10" stroke-linecap="round" stroke-linejoin="round"/>
<path d="M110.902 295.793C111.859 295.793 112.941 295.919 114.149 296.169C115.356 296.42 116.496 296.818 117.567 297.365C118.637 297.912 119.525 298.595 120.233 299.416C120.939 300.236 121.293 301.193 121.293 302.287C121.293 304.611 121.145 306.446 120.848 307.79C120.552 309.135 120.176 310.206 119.721 311.003C119.264 311.801 118.741 312.439 118.149 312.917C117.556 313.396 116.987 313.932 116.44 314.523C115.254 315.845 113.762 317.03 111.963 318.078C110.161 319.127 108.201 320.072 106.082 320.915C103.963 321.759 101.754 322.487 99.452 323.103C97.15 323.719 94.894 324.231 92.683 324.641C90.473 325.051 88.354 325.359 86.327 325.564C84.299 325.769 82.533 325.872 81.029 325.872C70.319 325.872 61.488 324.767 54.54 322.557C47.59 320.347 42.088 317.134 38.031 312.918C33.974 308.703 31.148 303.576 29.554 297.537C27.958 291.499 27.161 284.651 27.161 276.995C27.161 268.382 28.175 260.681 30.203 253.89C32.23 247.1 35.398 241.346 39.704 236.629C44.011 231.912 49.503 228.301 56.179 225.794C62.855 223.288 70.865 222.034 80.208 222.034C83.489 222.034 86.86 222.171 90.325 222.444C93.788 222.717 97.239 223.196 100.681 223.88C104.121 224.564 107.517 225.476 110.867 226.614C114.217 227.754 117.418 229.167 120.471 230.852C121.657 231.491 122.853 232.824 124.061 234.851C125.268 236.879 126.283 239.294 127.103 242.097C127.922 244.9 128.424 247.942 128.607 251.223C128.789 254.504 128.424 257.706 127.513 260.827C126.6 263.949 125.029 266.854 122.796 269.543C120.563 272.232 117.441 274.374 113.431 275.969L86.908 263.254C87.592 261.705 88.229 260.28 88.822 258.982C89.414 257.683 89.869 256.499 90.189 255.427C90.507 254.357 90.656 253.376 90.633 252.488C90.61 251.599 90.37 250.791 89.915 250.061C89.368 249.332 88.524 248.774 87.386 248.386C86.245 247.999 84.72 247.76 82.806 247.668C80.253 247.577 77.861 248.227 75.628 249.616C73.395 251.007 71.458 253.114 69.817 255.939C68.176 258.765 66.878 262.296 65.921 266.535C64.964 270.774 64.485 275.65 64.485 281.164C64.485 284.855 64.803 288.297 65.442 291.486C66.08 294.676 67.105 297.399 68.518 299.655C69.93 301.911 71.742 303.62 73.952 304.782C76.163 305.944 78.841 306.366 81.985 306.047C84.764 305.819 87.237 305.409 89.402 304.817C91.566 304.225 93.504 303.552 95.213 302.8C96.921 302.048 98.47 301.251 99.86 300.407C101.251 299.564 102.561 298.801 103.792 298.117C105.023 297.433 106.207 296.876 107.347 296.442C108.486 296.01 109.672 295.793 110.902 295.793Z" fill="white"/>
<path d="M146.662 244.113C146.662 243.475 146.297 243.019 145.568 242.746C144.839 242.473 143.916 242.211 142.799 241.96C141.682 241.71 140.475 241.402 139.176 241.037C137.877 240.673 136.669 240.092 135.553 239.294C134.436 238.497 133.513 237.392 132.784 235.979C132.055 234.567 131.69 232.698 131.69 230.374C131.69 225.635 133.409 222.205 136.851 220.086C140.291 217.967 145.316 216.907 151.924 216.907C154.932 216.907 157.632 217.158 160.025 217.659C162.418 218.161 164.457 218.947 166.143 220.017C167.829 221.088 169.117 222.478 170.005 224.187C170.893 225.896 171.337 227.958 171.337 230.374C171.337 232.653 170.996 234.499 170.313 235.911C169.629 237.324 168.762 238.43 167.715 239.226C166.666 240.024 165.538 240.605 164.331 240.969C163.123 241.334 161.995 241.642 160.947 241.892C159.898 242.143 159.032 242.405 158.349 242.678C157.665 242.951 157.324 243.407 157.324 244.045V244.797C157.324 245.162 157.448 245.446 157.7 245.651C157.95 245.856 158.531 246.073 159.443 246.3C160.172 246.529 161.14 246.631 162.348 246.608C163.555 246.586 164.741 246.791 165.903 247.223C167.065 247.657 168.045 248.465 168.841 249.65C169.639 250.836 169.991 252.726 169.902 255.324L167.304 324.982L132.714 322.521L132.577 255.187C132.577 253.456 132.782 252.066 133.192 251.017C133.601 249.969 134.136 249.149 134.798 248.556C135.458 247.964 136.21 247.565 137.054 247.36C137.897 247.155 138.763 247.018 139.652 246.95C140.541 246.882 141.406 246.837 142.25 246.813C143.093 246.791 143.856 246.688 144.54 246.505C145.951 246.05 146.659 245.48 146.659 244.796V244.113H146.662Z" fill="white"/>
<path d="M173.949 249.582L210.043 247.189C209.769 251.747 209.541 256.076 209.359 260.177C209.267 261.909 209.188 263.687 209.12 265.509C209.052 267.332 208.983 269.075 208.914 270.738C208.847 272.402 208.801 273.928 208.778 275.318C208.755 276.709 208.744 277.881 208.744 278.839C210.019 274.783 211.421 270.818 212.948 266.944C214.474 263.071 216.332 259.63 218.519 256.622C220.706 253.614 223.315 251.187 226.346 249.342C229.376 247.496 233.055 246.573 237.386 246.573C243.675 246.573 248.859 247.849 252.938 250.401C257.016 252.954 260.195 256.508 262.474 261.065C264.752 265.623 266.222 271.035 266.883 277.3C267.543 283.567 267.6 290.414 267.054 297.842C266.644 303.584 265.868 308.267 264.73 311.89C263.59 315.513 262.188 318.339 260.525 320.367C258.861 322.395 256.971 323.785 254.852 324.537C252.733 325.289 250.465 325.665 248.05 325.665C244.495 325.665 241.497 325.334 239.061 324.674C236.622 324.013 234.686 322.931 233.25 321.427C231.814 319.923 230.812 317.93 230.241 315.446C229.672 312.963 229.478 309.875 229.661 306.183C229.979 298.892 230.105 293.07 230.037 288.717C229.969 284.365 229.752 281.027 229.387 278.702C229.023 276.378 228.555 274.851 227.987 274.122C227.417 273.393 226.812 273.028 226.175 273.028C224.988 273.028 223.805 273.974 222.62 275.865C221.434 277.757 220.296 280.183 219.201 283.145C218.108 286.108 217.083 289.389 216.126 292.989C215.169 296.59 214.303 300.088 213.528 303.482C212.753 306.878 212.092 309.954 211.546 312.711C210.999 315.469 210.611 317.508 210.384 318.829C210.247 319.558 209.974 320.322 209.564 321.119C209.154 321.917 208.549 322.657 207.752 323.341C206.953 324.025 205.951 324.594 204.744 325.05C203.536 325.505 202.066 325.734 200.335 325.734C198.192 325.734 196.404 325.631 194.969 325.426C193.534 325.221 192.245 324.97 191.107 324.674C189.967 324.377 188.896 324.059 187.894 323.717C186.891 323.375 185.763 323.068 184.51 322.794C183.256 322.521 181.785 322.293 180.101 322.11C178.413 321.928 176.317 321.86 173.812 321.905L173.949 249.582Z" fill="white"/>
<path d="M271.404 249.582L307.498 247.189C307.225 251.747 306.996 256.076 306.814 260.177C306.722 261.909 306.643 263.687 306.575 265.509C306.507 267.332 306.438 269.075 306.37 270.738C306.302 272.402 306.255 273.928 306.233 275.318C306.21 276.709 306.199 277.881 306.199 278.839C307.474 274.783 308.876 270.818 310.403 266.944C311.929 263.071 313.786 259.63 315.974 256.622C318.162 253.614 320.77 251.187 323.801 249.342C326.831 247.496 330.511 246.573 334.841 246.573C341.13 246.573 346.314 247.849 350.392 250.401C354.472 252.954 357.649 256.508 359.929 261.065C362.208 265.623 363.677 271.035 364.339 277.3C364.997 283.567 365.056 290.414 364.509 297.842C364.099 303.584 363.323 308.267 362.185 311.89C361.047 315.513 359.644 318.339 357.98 320.367C356.318 322.395 354.427 323.785 352.308 324.537C350.188 325.289 347.921 325.665 345.506 325.665C341.951 325.665 338.954 325.334 336.517 324.674C334.079 324.013 332.142 322.931 330.706 321.427C329.27 319.923 328.268 317.93 327.697 315.446C327.128 312.963 326.934 309.875 327.117 306.183C327.435 298.892 327.56 293.07 327.493 288.717C327.425 284.365 327.208 281.027 326.844 278.702C326.479 276.378 326.012 274.851 325.443 274.122C324.873 273.393 324.269 273.028 323.631 273.028C322.445 273.028 321.26 273.974 320.076 275.865C318.89 277.757 317.752 280.183 316.658 283.145C315.564 286.108 314.538 289.389 313.582 292.989C312.625 296.59 311.759 300.088 310.984 303.482C310.209 306.878 309.548 309.954 309.002 312.711C308.454 315.469 308.067 317.508 307.839 318.829C307.703 319.558 307.43 320.322 307.02 321.119C306.61 321.917 306.005 322.657 305.208 323.341C304.41 324.025 303.407 324.594 302.2 325.05C300.992 325.505 299.522 325.734 297.79 325.734C295.648 325.734 293.86 325.631 292.425 325.426C290.99 325.221 289.701 324.97 288.563 324.674C287.423 324.377 286.352 324.059 285.35 323.717C284.347 323.375 283.219 323.068 281.966 322.794C280.712 322.521 279.242 322.293 277.556 322.11C275.87 321.928 273.773 321.86 271.268 321.905L271.404 249.582Z" fill="white"/>
<path d="M458.367 295.793C459.324 295.793 460.406 295.919 461.613 296.169C462.822 296.42 463.961 296.818 465.033 297.365C466.103 297.912 466.992 298.595 467.697 299.416C468.404 300.236 468.758 301.193 468.758 302.287C468.758 304.611 468.61 306.446 468.313 307.79C468.018 309.135 467.641 310.206 467.186 311.003C466.729 311.801 466.206 312.439 465.614 312.917C465.022 313.395 464.452 313.932 463.905 314.523C462.719 315.845 461.227 317.03 459.428 318.078C457.627 319.127 455.668 320.072 453.547 320.915C451.428 321.759 449.219 322.487 446.918 323.103C444.615 323.718 442.359 324.231 440.148 324.641C437.939 325.051 435.82 325.359 433.793 325.564C431.764 325.769 429.998 325.872 428.494 325.872C417.785 325.872 408.955 324.767 402.006 322.557C395.055 320.347 389.553 317.134 385.496 312.918C381.439 308.703 378.613 303.576 377.019 297.537C375.423 291.499 374.626 284.651 374.626 276.995C374.626 268.382 375.64 260.681 377.669 253.89C379.696 247.1 382.864 241.346 387.171 236.629C391.478 231.912 396.968 228.301 403.646 225.794C410.322 223.288 418.33 222.034 427.673 222.034C430.954 222.034 434.327 222.171 437.79 222.444C441.253 222.717 444.706 223.196 448.147 223.88C451.586 224.564 454.983 225.476 458.333 226.614C461.683 227.754 464.884 229.167 467.937 230.852C469.123 231.491 470.318 232.824 471.525 234.851C472.734 236.879 473.748 239.294 474.568 242.097C475.388 244.9 475.89 247.942 476.072 251.223C476.254 254.504 475.89 257.706 474.978 260.827C474.066 263.949 472.494 266.854 470.261 269.543C468.029 272.232 464.906 274.374 460.896 275.969L434.373 263.254C435.057 261.705 435.693 260.28 436.287 258.982C436.879 257.683 437.336 256.499 437.654 255.427C437.972 254.357 438.121 253.376 438.099 252.488C438.076 251.599 437.835 250.791 437.38 250.061C436.833 249.332 435.989 248.774 434.851 248.386C433.712 247.999 432.185 247.76 430.271 247.668C427.718 247.577 425.326 248.227 423.093 249.616C420.861 251.007 418.923 253.114 417.282 255.939C415.641 258.765 414.343 262.296 413.386 266.535C412.429 270.774 411.95 275.65 411.95 281.164C411.95 284.855 412.268 288.297 412.907 291.486C413.546 294.676 414.571 297.399 415.983 299.655C417.395 301.911 419.208 303.62 421.419 304.782C423.628 305.944 426.306 306.366 429.45 306.047C432.229 305.819 434.702 305.409 436.868 304.817C439.032 304.225 440.97 303.552 442.679 302.8C444.388 302.048 445.937 301.251 447.327 300.407C448.716 299.564 450.026 298.801 451.257 298.117C452.488 297.433 453.673 296.876 454.812 296.442C455.951 296.01 457.136 295.793 458.367 295.793Z" fill="white"/>
<path d="M494.128 244.113C494.128 243.475 493.763 243.019 493.034 242.746C492.304 242.473 491.382 242.211 490.264 241.96C489.147 241.71 487.94 241.402 486.641 241.037C485.342 240.673 484.135 240.092 483.018 239.294C481.901 238.497 480.979 237.392 480.25 235.979C479.52 234.567 479.156 232.698 479.156 230.374C479.156 225.635 480.875 222.205 484.316 220.086C487.757 217.967 492.781 216.907 499.39 216.907C502.398 216.907 505.097 217.158 507.49 217.659C509.883 218.161 511.922 218.947 513.609 220.017C515.295 221.088 516.582 222.478 517.47 224.187C518.358 225.896 518.804 227.958 518.804 230.374C518.804 232.653 518.46 234.499 517.779 235.911C517.093 237.324 516.228 238.43 515.181 239.226C514.132 240.024 513.003 240.605 511.796 240.969C510.589 241.334 509.46 241.642 508.411 241.892C507.362 242.143 506.499 242.405 505.815 242.678C505.131 242.951 504.79 243.407 504.79 244.045V244.797C504.79 245.162 504.915 245.446 505.165 245.651C505.415 245.856 505.995 246.073 506.909 246.3C507.638 246.529 508.606 246.631 509.813 246.608C511.02 246.586 512.206 246.791 513.368 247.223C514.53 247.657 515.511 248.465 516.307 249.65C517.104 250.836 517.457 252.726 517.368 255.324L514.77 324.982L480.18 322.521L480.043 255.187C480.043 253.456 480.248 252.066 480.658 251.017C481.068 249.969 481.603 249.149 482.263 248.556C482.923 247.964 483.675 247.565 484.519 247.36C485.361 247.155 486.228 247.018 487.117 246.95C488.006 246.882 488.871 246.837 489.715 246.813C490.557 246.791 491.322 246.688 492.006 246.505C493.418 246.05 494.125 245.48 494.125 244.796V244.113H494.128Z" fill="white"/>
<path d="M519.904 251.359L528.927 251.017C529.064 247.144 529.212 243.453 529.372 239.943C529.53 236.434 529.655 233.312 529.747 230.578C529.884 227.389 530.02 224.449 530.157 221.76L567.345 221.35C567.161 223.994 566.98 226.842 566.798 229.895C566.616 232.493 566.409 235.49 566.183 238.884C565.954 242.28 565.728 245.868 565.499 249.651L576.983 249.241C577.848 249.196 578.727 249.446 579.616 249.993C580.505 250.54 581.302 251.304 582.009 252.283C582.714 253.263 583.284 254.402 583.718 255.701C584.15 257 584.366 258.401 584.366 259.905C584.366 261.045 584.081 262.15 583.512 263.22C582.94 264.291 582.213 265.237 581.324 266.057C580.435 266.877 579.42 267.538 578.281 268.039C577.142 268.541 576.002 268.791 574.863 268.791H564.404C564.222 271.571 564.062 274.226 563.925 276.755C563.788 279.284 563.663 281.586 563.55 283.659C563.435 285.733 563.355 287.511 563.31 288.991C563.265 290.472 563.242 291.554 563.242 292.238C563.242 294.699 563.539 296.876 564.131 298.766C564.723 300.658 565.522 302.105 566.524 303.107C567.344 303.927 568.233 304.303 569.19 304.235C570.147 304.167 571.161 303.917 572.233 303.483C573.303 303.05 574.421 302.549 575.581 301.979C576.745 301.41 577.917 300.988 579.102 300.714C580.287 300.44 581.471 300.464 582.657 300.782C583.843 301.101 585.026 301.922 586.212 303.243C588.81 306.297 590.007 309.031 589.802 311.446C589.595 313.862 588.491 315.981 586.486 317.803C584.48 319.626 581.861 321.164 578.625 322.417C575.389 323.67 572.039 324.649 568.576 325.356C565.113 326.062 561.82 326.495 558.697 326.655C555.576 326.814 553.127 326.712 551.349 326.347C547.019 325.481 543.351 324.057 540.343 322.075C537.335 320.093 534.886 317.666 532.993 314.795C531.102 311.924 529.723 308.654 528.858 304.985C527.993 301.317 527.559 297.363 527.559 293.125C527.559 292.396 527.571 291.257 527.594 289.707C527.615 288.158 527.66 286.312 527.731 284.17C527.799 282.028 527.877 279.658 527.969 277.061C528.061 274.464 528.151 271.729 528.242 268.858H520.107L519.904 251.359Z" fill="white"/>
<path d="M599.894 348.771C597.296 349.272 595.154 349.25 593.468 348.703C592.738 348.474 592.077 348.122 591.486 347.643C590.892 347.164 590.437 346.503 590.119 345.661C589.799 344.817 589.674 343.781 589.742 342.551C589.81 341.321 590.162 339.817 590.803 338.039C590.94 338.039 591.633 337.64 592.887 336.843C594.141 336.045 595.758 334.986 597.741 333.664C599.723 332.342 601.979 330.804 604.509 329.05C607.038 327.295 609.648 325.461 612.337 323.547C611.38 320.768 610.114 317.497 608.542 313.737C606.97 309.977 605.216 305.956 603.278 301.672C601.34 297.389 599.301 292.99 597.161 288.479C595.018 283.967 592.911 279.604 590.837 275.388C588.763 271.173 586.804 267.208 584.958 263.493C583.112 259.779 581.53 256.6 580.208 253.957L617.53 246.779C618.671 249.65 619.821 252.806 620.983 256.247C622.145 259.688 623.274 263.22 624.366 266.843C625.462 270.466 626.52 274.113 627.546 277.781C628.571 281.45 629.517 284.982 630.384 288.377C631.247 291.773 632.025 294.939 632.708 297.879C633.391 300.819 633.96 303.382 634.415 305.569C635.647 304.111 636.569 302.516 637.185 300.784C637.8 299.053 638.244 297.229 638.519 295.315C638.792 293.401 638.951 291.408 638.996 289.334C639.043 287.261 639.133 285.153 639.271 283.011C639.453 279.822 639.328 276.472 638.894 272.962C638.46 269.453 637.892 266.15 637.185 263.05C636.478 259.951 635.738 257.251 634.964 254.949C634.189 252.648 633.55 251.133 633.048 250.403C634.691 249.719 636.673 249.128 638.995 248.626C641.001 248.171 643.509 247.749 646.516 247.361C649.524 246.974 653.1 246.78 657.246 246.78C659.935 246.78 662.248 247.282 664.185 248.284C666.123 249.287 667.728 250.688 669.005 252.488C670.28 254.289 671.226 256.442 671.841 258.948C672.456 261.455 672.786 264.212 672.833 267.219C672.923 276.789 671.454 285.551 668.423 293.503C665.392 301.456 660.642 309.01 654.171 316.164C652.483 318.033 650.353 320.038 647.778 322.18C645.203 324.322 642.354 326.497 639.233 328.708C636.112 330.918 632.807 333.083 629.321 335.202C625.835 337.321 622.36 339.28 618.895 341.081C615.432 342.881 612.071 344.453 608.813 345.798C605.556 347.142 602.582 348.133 599.894 348.771Z" fill="white"/>
<path d="M533.878 144.499C533.622 137.375 533.733 130.323 532.575 123.215C532.167 120.441 531.669 117.803 530.997 115.178C529.071 107 525.772 99.504 519.923 93.523C517.249 90.778 513.538 88.96 509.741 87.496C508.608 86.857 507.315 86.378 506.098 85.96C506.836 90.458 506.502 94.584 505.418 98.698C502.324 110.651 495.037 119.48 485.773 126.589C473.496 136.016 459.605 141.622 444.955 145.705C408.738 155.806 372.053 162.533 334.444 163.337C332.614 163.491 330.85 163.495 329.046 163.495C295.265 163.201 262.67 156.155 230.89 144.256C223.034 141.304 215.022 137.862 207.8 133.702C205.356 132.258 202.095 130.47 200.646 128.063C200.195 127.295 200.132 126.384 200.448 125.891C200.72 125.852 201.049 125.843 201.431 125.897C202.147 125.995 202.827 126.293 203.47 126.632C204.863 127.431 206.179 128.47 207.599 129.206C208.267 129.605 208.974 129.981 209.7 130.295C212.52 131.401 215.5 132.001 218.483 132.552C220.156 132.719 221.808 132.97 223.491 133.062C225.26 133.283 227.018 133.304 228.823 133.118C232.772 132.965 238.277 131.602 242.003 128.895C243.984 127.679 245.59 125.979 246.414 124.002C246.507 123.73 246.651 123.625 246.779 123.398C247.391 123.267 248.016 123.272 248.683 123.408C248.896 123.658 249.124 123.793 249.298 124.088C250.687 126.231 251.213 128.617 251.554 131.118C252.02 134.475 253.9 136.467 256.154 137.6C258.51 139.317 261.517 139.707 263.908 139.301C264.945 139.055 265.839 138.608 266.607 137.92C267.688 137.379 268.586 136.391 269.292 135.257C270.135 133.817 270.886 131.273 272.268 130.039C272.816 129.771 273.438 129.742 274.182 130.042C279.129 131.805 284.184 127.735 288.971 130.444C292.824 132.674 294.153 137.934 297.325 140.911C303.318 146.494 307.88 142.698 313.206 138.903C321.45 132.993 329.968 134.61 339.435 135.979C344.527 136.704 348.546 135.948 352.892 139.058C357.019 142.04 359.951 146.81 365.415 142.422C369.272 139.318 368.442 133.84 371.704 130.412C381.274 119.974 392.954 147.968 401.02 131.927C401.922 130.06 403.258 128.545 404.78 127.305C405.18 126.951 405.581 126.637 405.989 126.318C409.542 124.311 412.901 124.022 416.21 125.544C419.618 127.119 421.507 131.074 425.521 131.883C429.357 132.686 432.652 126.719 435.972 124.924C443.314 121.055 451.589 126.402 454.917 117.372C459.282 118.057 462.921 118.372 464.942 114.015C465.819 112.208 464.813 108.875 466.04 107.538C468.206 105.136 471.485 108.01 473.374 105.316C475.216 102.72 472.854 98.655 474.212 95.645C479.388 97.189 482.747 103.286 488.614 101.372C497.296 98.445 492.733 90.463 493.317 84.399C493.991 76.45 494.215 73.429 491.186 69.7C490.145 68.143 488.721 66.99 487.362 65.814C479.251 58.707 467.089 56.041 456.774 52.128C459.803 57.194 461.87 61.848 461.504 67.331C461.816 69.271 461.861 71.164 461.861 73.012C461.861 71.166 461.816 69.273 461.504 67.331C461.432 71.976 459.365 76.014 456.389 79.274C451.789 84.175 446.473 88.351 440.762 91.69C435.117 94.964 429.174 97.371 422.944 99.001C394.442 106.151 363.132 117.605 333.365 112.974C322.434 111.369 309.755 110.713 298.532 110.757C280.909 110.95 266.654 108.672 249.132 106.242C243.118 104.604 236.898 103.515 231.093 100.992C224.207 98.051 217.751 94.497 213.743 87.542C212.605 85.643 211.831 85.285 210.237 85.893C209.495 85.373 208.653 85.614 207.325 86.128C200.016 89.371 192.554 92.105 185.845 96.738C179.501 100.975 170.093 108.865 170.822 117.369C170.924 118.519 172.131 124.099 174.045 124.063C174.18 124.177 174.328 124.389 174.489 124.458C176.383 128.438 174.71 133.349 175.473 137.474C176.464 142.807 179.493 146.906 183.606 149.099C186.445 150.931 189.901 151.744 193.624 151.37C198.578 150.919 203.482 150.106 208.48 150.989C209.831 151.285 211.039 151.684 212.152 152.294C214.226 153.594 215.705 155.724 216.587 158.699C217.92 163.263 218.496 168.056 219.473 172.797C220.221 176.38 221.067 180.077 223.299 183.257C224.172 184.438 225.094 185.205 226.069 185.578C227.804 186.977 229.749 186.761 231.815 185.181C232.286 184.872 232.789 184.523 233.305 184.091C236.094 181.525 237.742 178.122 240.155 175.232C241.884 173.248 243.928 171.42 246.118 169.845C248.164 168.398 250.322 167.05 252.497 165.945C255.377 164.618 258.408 164.67 261.191 166.07C262.501 166.866 263.729 167.965 264.806 169.253C265.623 170.325 266.354 171.454 267.169 172.53C268.615 174.367 270.307 175.907 272.277 176.927C274.129 178.089 276.213 178.786 278.653 178.492C283.469 178.029 287.424 174.423 292.482 174.842C294.044 175.056 295.354 175.405 296.441 175.866C300.17 178.389 300.72 183.262 301.761 187.911C302.728 192.662 301.259 198.732 301.615 203.535C301.943 207.654 302.513 211.732 304.371 215.45C305.6 217.977 307.133 219.552 308.806 220.284C311.297 222.082 314.286 221.709 317.576 219.14C317.972 218.832 318.368 218.551 318.836 218.297C323.084 214.756 325.878 210.608 326.295 204.654C326.81 197.941 329.431 192.705 334.071 189.073C335.43 188.182 336.925 187.364 338.667 186.66C347.112 183.27 356.153 177.399 365.543 180.485C366.572 180.826 367.57 181.215 368.404 181.754C375 185.483 379.058 192.204 379.549 199.766C379.858 203.22 380.553 206.778 382.26 209.822C383.36 211.701 384.733 212.894 386.17 213.554C388.44 215.124 391.029 215.033 393.598 213.105C394.368 212.545 395.131 211.99 395.887 211.062C397.803 209.058 399.162 206.555 400.075 203.905C400.954 201.949 401.913 200.409 403.309 199.298C404.512 198.542 406.049 198.003 407.87 197.963C409.903 197.923 412.081 197.513 413.622 196.327C414.108 196.034 414.54 195.701 414.983 195.32C416.713 193.708 417.157 191.15 417.844 188.933C419.242 184.437 420.418 178.557 424.51 175.523C425.535 175.038 426.715 174.707 427.813 174.769C428.637 174.821 429.35 175.088 430.034 175.274C432.628 177.065 433.841 180.443 434.739 183.517C435.313 185.872 436.057 188.127 437.085 190.189C437.88 192.026 438.905 194.075 440.827 194.954C441.005 195.004 441.157 195.045 441.253 195.193C441.528 195.301 441.679 195.535 441.944 195.626C443.731 196.463 445.303 195.961 446.665 194.864C447.364 194.489 447.89 193.891 448.515 193.357C450.587 190.974 450.523 187.439 451.435 184.537C452.322 181.544 453.513 178.611 455.132 175.904C455.97 174.326 457.019 172.502 458.536 171.327C458.829 171.092 459.063 170.998 459.407 170.796C460.874 170.348 462.919 170.626 464.249 171.151C464.337 171.174 464.456 171.315 464.491 171.334C466.368 172.569 467.766 174.523 469.346 176.241C470.524 177.47 472.987 179.739 475.393 181.082C477.616 182.198 480.11 183.238 482.315 181.546C484.71 179.76 485.36 176.384 485.422 173.673C485.563 171.888 485.305 170.254 485.256 168.472C485.014 164.403 485.254 160.355 486.363 156.502C487.213 153.221 489.088 150.62 491.609 148.632C491.683 148.568 491.888 148.407 491.97 148.347C493.24 147.614 494.493 147.516 495.599 147.891C496.365 148.393 496.929 149.311 497.546 150.457C498.796 153.061 499.401 157.919 502.751 158.825C505.747 159.782 508.595 154.998 510.97 153.919C513.488 152.815 516.269 154.003 518.763 154.558C521.402 155.001 524.167 154.582 526.271 152.895C527.97 151.716 528.423 149.75 529.886 148.344C529.808 148.423 530.9 149.143 530.964 149.17C531.452 149.411 532.03 149.399 532.513 149.173C533.894 148.764 533.943 147.571 533.915 146.387C533.9 145.715 533.89 145.047 533.878 144.499Z" fill="white"/>
</svg>
